<?xml version="1.0" encoding="UTF-8"?>
<svg id="Layer_2" data-name="Layer 2" xmlns="http://www.w3.org/2000/svg" viewBox="0 0 450 630">
  <defs>
    <style>
      .cls-1 {
        fill: #cfdeff;
      }
    </style>
  </defs>
  <g id="Layer_1-2" data-name="Layer 1">
    <path class="cls-1" d="M360,45c0-2.03-.14-4.04-.4-6-2.93-22.02-21.78-39-44.6-39s-41.67,16.98-44.6,39c-.26,1.96-.4,3.97-.4,6,0-2.03-.14-4.04-.4-6-2.93-22.02-21.78-39-44.6-39s-41.67,16.98-44.6,39c-.26,1.96-.4,3.97-.4,6,0-2.03-.14-4.04-.4-6C176.67,16.98,157.82,0,135,0s-41.67,16.98-44.6,39c-.26,1.96-.4,3.97-.4,6,0-2.03-.14-4.04-.4-6C86.67,16.98,67.82,0,45,0,20.15,0,0,20.15,0,45c0,23.16,17.5,42.24,40,44.73,1.64.18,3.31.27,5,.27-1.69,0-3.36.09-5,.27C17.5,92.76,0,111.84,0,135s17.5,42.24,40,44.73v.55C17.5,182.76,0,201.84,0,225s17.5,42.24,40,44.73c1.64.18,3.31.27,5,.27-1.69,0-3.36.09-5,.27-22.5,2.49-40,21.56-40,44.73s17.5,42.24,40,44.73c1.64.18,3.31.27,5,.27-1.69,0-3.36.09-5,.27-22.5,2.49-40,21.56-40,44.73s17.5,42.24,40,44.73c1.64.18,3.31.27,5,.27-1.69,0-3.36.09-5,.27-22.5,2.49-40,21.56-40,44.73s17.5,42.24,40,44.72c1.64.18,3.31.28,5,.28-1.69,0-3.36.09-5,.28-22.5,2.49-40,21.56-40,44.72,0,24.85,20.15,45,45,45,22.47,0,41.1-16.47,44.46-38,.36-2.28.54-4.62.54-7,0,2.38.18,4.72.54,7,3.36,21.53,21.99,38,44.46,38s41.1-16.47,44.46-38h1.08c3.36,21.53,21.99,38,44.46,38s41.1-16.47,44.46-38c.36-2.28.54-4.62.54-7,0,2.38.18,4.72.54,7,3.36,21.53,21.99,38,44.46,38s41.1-16.47,44.46-38c.36-2.28.54-4.62.54-7,0,2.38.18,4.72.54,7,3.36,21.53,21.99,38,44.46,38,24.85,0,45-20.15,45-45,0-22.82-16.98-41.67-39-44.6-1.96-.26-3.97-.4-6-.4,2.03,0,4.04-.14,6-.4,22.02-2.93,39-21.79,39-44.6s-16.98-41.67-39-44.6v-.79c22.02-2.93,39-21.79,39-44.6s-16.98-41.67-39-44.6c-1.96-.26-3.97-.4-6-.4,2.03,0,4.04-.14,6-.4,22.02-2.93,39-21.79,39-44.6s-16.98-41.67-39-44.6c-1.96-.26-3.97-.4-6-.4,2.03,0,4.04-.14,6-.4,22.02-2.93,39-21.79,39-44.6s-16.98-41.67-39-44.6c-1.96-.26-3.97-.4-6-.4,2.03,0,4.04-.13,6-.4,22.02-2.93,39-21.79,39-44.6s-16.98-41.67-39-44.6c-1.96-.26-3.97-.4-6-.4,2.03,0,4.04-.14,6-.4,22.02-2.93,39-21.79,39-44.6,0-24.85-20.15-45-45-45-22.82,0-41.67,16.98-44.6,39-.26,1.96-.4,3.97-.4,6ZM45,360h.31s.21,0,.21,0c-.17,0-.35,0-.52,0Z"/>
  </g>
</svg>