<?xml version="1.0" encoding="UTF-8"?>
<svg id="Layer_2" data-name="Layer 2" xmlns="http://www.w3.org/2000/svg" viewBox="0 0 523.93 143.48">
  <defs>
    <style>
      .cls-1 {
        fill: #fffcf3;
      }
    </style>
  </defs>
  <g id="Layer_1-2" data-name="Layer 1">
    <g>
      <path class="cls-1" d="M55.86,94.32l-.59-.29c-.74-.44-1.03-.15-1.62.74-11.76,17.93-14.85,18.96-8.23-2.5L73.06,2c.29-1.03.44-1.47-.15-1.62l-.44-.15q-.44-.15-1.32.29c-2.06,1.18-6.91,3.23-10.88,4.26-.74.15-1.18.15-1.47,1.03l-.15.44c-.15.59,0,.88.74,1.03,5.73,1.03,6.03,1.91,4.12,8.08l-8.38,26.9c-4.12-2.65-8.23-4.12-13.23-4.12C22.34,38.16,0,69.77,0,99.61c0,8.97,3.53,14.41,10.73,14.55,9.41.15,21.76-12.05,32.78-34.25l-5.88,18.67c-3.53,11.32-3.53,15.58,1.03,15.58,4.12,0,8.97-4.56,16.17-16.17,1.47-2.35,1.91-3.23,1.03-3.68ZM13.08,109.61c-3.97,0-6.91-2.65-6.91-11.32,0-24.7,17.93-57.48,35.57-57.48,3.97,0,8.67,2.65,11.03,8.82l-.74,2.65c-12.79,38.22-29.11,57.33-38.96,57.33Z"/>
      <path class="cls-1" d="M115.84,98.43l-.29-.15c-.59-.29-1.03-.29-1.62.44-4.7,6.62-10.44,10-17.79,10-13.08,0-23.81-11.91-23.81-37.34l.15-5.14h38.81c3.09,0,4.41-1.18,4.41-4.26,0-14.55-7.35-24.25-21.76-24.25-15.58,0-28.08,13.38-28.08,36.16,0,26.46,13.38,40.28,28.67,40.28,8.38,0,15.73-3.38,21.61-14.26.29-.59.29-1.18-.29-1.47ZM93.05,40.22c10.29,0,15.88,6.03,15.88,16.32,0,5.29-1.18,6.91-7.35,6.91h-28.67c2.06-15.29,10.58-23.23,20.14-23.23Z"/>
      <path class="cls-1" d="M178.9,39.19c-2.21,0-4.85.44-8.38.44-2.65,0-7.2-.44-9.55-.44-.88,0-1.32.29-1.32,1.03v.74c0,.59.59.73,1.76,1.03,6.76,1.47,7.06,3.82,5.15,9.26l-17.35,51.01-16.32-52.04c-1.47-4.85-.44-6.76,5.88-8.23,1.18-.29,1.76-.44,1.76-1.03v-.74c0-.74-.44-1.03-1.32-1.03-5.29,0-7.5.44-10.73.44-2.65,0-6.32-.44-10.88-.44-.88,0-1.32.29-1.32,1.03v.74c0,.59.44.73,1.18.88,3.38.73,7.2,3.53,8.82,8.53l19.7,61.74c.15.44.59.88,1.18.88h.44c.59,0,1.03-.29,1.18-.88l21.32-62.04c1.62-4.7,3.67-7.06,8.97-8.23.74-.15,1.18-.29,1.18-.88v-.74c0-.74-.44-1.03-1.32-1.03Z"/>
      <path class="cls-1" d="M220.79,38.16c-24.26-.15-38.51,35.87-38.51,55.86,0,12.5,3.97,20.88,15.29,20.88,24.55,0,38.51-36.9,38.51-55.57,0-12.64-3.38-21.17-15.29-21.17ZM230.06,59.33c-.73,22.64-14.41,52.92-31.31,52.92-7.06,0-10.73-7.2-10.29-19.7.88-22.34,14.11-51.89,31.31-51.75,7.35,0,10.73,6.62,10.29,18.52Z"/>
      <path class="cls-1" d="M287.09,62.42v39.84c0,4.7-1.76,6.32-6.32,7.5-1.47.44-2.06.59-2.06,1.18v.74c0,.74.44,1.03,1.32,1.03,3.97,0,6.17-.44,9.85-.44s6.17.44,10.14.44c.88,0,1.32-.29,1.32-1.03v-.74c0-.59-.44-.73-1.47-.88-4.56-1.03-6.91-3.38-6.91-7.79v-41.9c0-15.29-6.17-22.64-18.82-22.64-8.53,0-16.46,4.56-21.17,13.08v-11.03c0-.73,0-1.47-.74-1.62-1.03-.29-1.47-.29-1.76.15-2.06,2.5-5.73,4.56-9.85,5.59-.74.15-1.18.29-1.18,1.03v.44c0,.74.29.88,1.03,1.03,6.47,1.03,6.91,1.62,6.91,6.76v49.1c0,4.7-1.76,6.32-6.32,7.5-1.47.44-2.06.59-2.06,1.18v.74c0,.74.44,1.03,1.32,1.03,3.97,0,6.17-.44,9.85-.44s6.17.44,10.14.44c.88,0,1.32-.29,1.32-1.03v-.74c0-.59-.44-.73-1.47-.88-4.56-1.03-6.91-3.38-6.91-7.79v-47.04c3.97-8.82,11.76-13.38,18.82-13.38,9.7,0,14.99,5.14,14.99,20.58Z"/>
      <path class="cls-1" d="M312.38,51.25c0-5.59,4.12-10.88,12.2-10.88,8.97,0,15.73,5.88,17.49,19.41.15,1.18.59,1.32,1.03,1.32h.44c.73,0,.88-.44.88-1.32v-14.7c0-.88-.15-1.47-1.03-2.21-3.53-3.09-11.17-5.14-16.91-5.14-12.35,0-19.7,7.35-19.7,16.32,0,20.29,35.72,25.28,35.72,44.54,0,7.06-5.15,12.94-15.88,12.94s-17.93-7.79-19.4-23.37c-.15-1.18-.44-1.32-1.03-1.32h-.44c-.59,0-.74.59-.74,1.32v17.2c0,1.62.44,2.21,1.47,3.09,3.38,2.94,11.32,5.73,19.99,5.73,14.11,0,21.32-8.53,21.32-19.11,0-20.43-35.43-24.7-35.43-43.81Z"/>
      <path class="cls-1" d="M410.28,112.69c.88,0,1.32-.29,1.32-1.03v-.74c0-.59-.44-.73-1.47-.88-4.56-1.03-6.91-3.38-6.91-7.79v-41.9c0-15.29-6.17-22.64-18.82-22.64-8.53,0-16.46,4.56-21.17,13.08V1.41c0-.74,0-.88-.74-1.18l-.44-.15c-.44-.15-.59-.15-1.32.29-1.76,1.18-6.03,3.23-9.85,4.26-.73.15-1.18.29-1.18,1.03v.44c0,.73.29.88,1.03,1.03,6.47,1.03,6.91,2.06,6.91,8.09v87.03c0,4.7-1.76,6.32-6.32,7.5-1.47.44-2.06.59-2.06,1.18v.74c0,.74.44,1.03,1.32,1.03,3.97,0,6.17-.44,9.85-.44s6.17.44,10.14.44c.88,0,1.32-.29,1.32-1.03v-.74c0-.59-.44-.73-1.47-.88-4.56-1.03-6.91-3.38-6.91-7.79v-47.04c3.97-8.82,11.76-13.38,18.82-13.38,9.7,0,14.99,5.14,14.99,20.58v39.84c0,4.7-1.76,6.32-6.32,7.5-1.47.44-2.06.59-2.06,1.18v.74c0,.74.44,1.03,1.32,1.03,3.97,0,6.17-.44,9.85-.44s6.17.44,10.14.44Z"/>
      <path class="cls-1" d="M467.9,50.51c1.03-3.09,1.03-4.12-.88-6.03-3.97-3.97-8.23-6.47-14.41-6.47-20.88,0-40.13,36.6-40.13,58.8,0,12.35,5.73,17.35,11.91,17.35,8.08,0,16.46-7.79,24.7-24.26l-2.79,8.53c-3.67,11.32-3.67,15.73.88,15.73,4.12,0,8.97-4.7,16.17-16.32,1.47-2.35,1.91-3.23,1.03-3.67l-.59-.29c-.73-.29-1.03-.15-1.62.73-11.76,17.93-15.14,18.82-8.08-2.35l13.82-41.75ZM425.86,110.63c-3.97,0-7.5-3.38-7.5-14.41,0-19.7,16.02-55.57,33.52-55.57,5.59,0,9.56,3.09,10.58,7.06-11.32,36.6-26.02,63.06-36.6,62.92Z"/>
      <path class="cls-1" d="M487.31,114.16c7.79.15,16.02-4.41,25.43-18.08.59-.88.59-1.47,0-1.91l-.44-.29c-.74-.44-1.18,0-1.76.73-7.79,10.29-13.52,14.7-20.58,14.55-6.03-.15-10.58-4.7-10.58-17.49,0-4.26.44-8.82,1.47-13.08,31.61-7.5,42.63-19.41,43.07-29.55.29-6.17-3.67-11.03-12.2-11.03-20.14,0-38.96,30.72-38.96,55.57,0,11.61,5,20.29,14.55,20.58ZM510.39,40.66c5.44,0,8.08,3.68,7.94,8.38-.29,9.41-12.64,20.87-36.9,26.75,4.7-18.52,16.76-35.13,28.96-35.13Z"/>
      <path class="cls-1" d="M232.9,125.48c1.43-.67,3.11-1.01,5.05-1.01s3.5.39,4.95,1.16c1.45.77,2.53,1.85,3.26,3.23l1.94-.66c-.86-1.78-2.18-3.18-3.96-4.2s-3.85-1.53-6.19-1.53-4.38.43-6.12,1.28c-1.74.85-3.08,2.07-4.01,3.65-.93,1.58-1.4,3.44-1.4,5.58s.47,4,1.4,5.58c.93,1.58,2.27,2.8,4.01,3.65,1.74.85,3.78,1.28,6.12,1.28,2.16,0,4.09-.44,5.82-1.33,1.73-.88,3.05-2.11,3.98-3.67l-2.07-.58c-.76,1.11-1.82,1.99-3.18,2.63-1.36.64-2.88.96-4.54.96-1.94,0-3.62-.34-5.05-1.01-1.43-.67-2.53-1.65-3.29-2.93s-1.15-2.8-1.15-4.57.38-3.29,1.15-4.57c.77-1.28,1.86-2.25,3.29-2.93Z"/>
      <path class="cls-1" d="M264.06,133.58c1.87,0,3.35-.46,4.44-1.38,1.09-.92,1.64-2.17,1.64-3.75,0-1.72-.55-3.08-1.64-4.08-1.09-1-2.58-1.5-4.44-1.5h-11.39v20.2h2.02v-9.49h6.51l6.97,9.49h2.47l-7.02-9.49h.43ZM254.69,131.69v-6.92h9.12c1.36,0,2.42.32,3.17.96s1.12,1.55,1.12,2.73c0,1.03-.37,1.82-1.12,2.39-.75.56-1.81.85-3.17.85h-9.12Z"/>
      <polygon class="cls-1" points="274.69 143.07 292.41 143.07 292.41 141.18 276.71 141.18 276.71 134.09 289.71 134.09 289.71 132.19 276.71 132.19 276.71 124.77 292.41 124.77 292.41 122.87 274.69 122.87 274.69 143.07"/>
      <path class="cls-1" d="M305.57,122.87l-9.95,20.2h2.3l2.75-5.63h11.89l2.75,5.63h2.32l-9.95-20.2h-2.12ZM301.61,135.55l5.02-10.28,5.02,10.28h-10.05Z"/>
      <polygon class="cls-1" points="315.34 124.77 324.23 124.77 324.23 143.07 326.25 143.07 326.25 124.77 335.14 124.77 335.14 122.87 315.34 122.87 315.34 124.77"/>
      <rect class="cls-1" x="338.09" y="122.87" width="2.02" height="20.2"/>
      <polygon class="cls-1" points="354.07 140.65 345.39 122.87 343.07 122.87 353.01 143.07 355.13 143.07 365.08 122.87 362.76 122.87 354.07 140.65"/>
      <polygon class="cls-1" points="368.04 143.07 385.76 143.07 385.76 141.18 370.06 141.18 370.06 134.09 383.06 134.09 383.06 132.19 370.06 132.19 370.06 124.77 385.76 124.77 385.76 122.87 368.04 122.87 368.04 143.07"/>
      <path class="cls-1" d="M417.2,134.01c-.99-.76-2.19-1.28-3.58-1.55s-3.24-.53-5.53-.75c-1.77-.17-3.16-.34-4.18-.52-1.02-.18-1.87-.47-2.55-.88-.68-.41-1.02-1-1.02-1.75,0-.84.3-1.57.91-2.18.61-.61,1.45-1.09,2.52-1.41s2.31-.49,3.71-.49c2.04,0,3.84.34,5.4,1.02s2.72,1.63,3.46,2.84l1.67-1.16c-.94-1.46-2.32-2.61-4.14-3.45-1.82-.83-3.91-1.25-6.26-1.25-1.83,0-3.46.25-4.87.75-1.41.5-2.51,1.2-3.28,2.12-.77.92-1.16,1.99-1.16,3.22,0,1.33.47,2.34,1.41,3.04.94.7,2.09,1.18,3.43,1.45s3.12.5,5.33.71c1.83.17,3.3.35,4.38.54,1.09.19,1.99.52,2.71.98s1.09,1.12,1.09,1.98-.32,1.56-.97,2.2-1.56,1.14-2.73,1.49-2.5.53-4,.53c-2.04,0-3.83-.32-5.37-.96-1.54-.64-2.67-1.51-3.4-2.63l-2.04.61c.86,1.53,2.25,2.74,4.18,3.64,1.93.89,4.16,1.34,6.7,1.34,1.92,0,3.61-.26,5.06-.77,1.46-.51,2.59-1.24,3.4-2.17.81-.93,1.21-2.02,1.21-3.27,0-1.41-.5-2.5-1.49-3.26Z"/>
      <polygon class="cls-1" points="421.14 124.77 430.02 124.77 430.02 143.07 432.04 143.07 432.04 124.77 440.93 124.77 440.93 122.87 421.14 122.87 421.14 124.77"/>
      <path class="cls-1" d="M461.26,136.86c0,.98-.3,1.83-.91,2.55-.61.72-1.47,1.28-2.6,1.67-1.13.39-2.45.58-3.96.58s-2.9-.19-4.05-.58c-1.15-.39-2.04-.94-2.65-1.67-.61-.72-.92-1.57-.92-2.55v-13.99h-2.02v13.63c0,1.41.39,2.65,1.17,3.7.78,1.05,1.9,1.86,3.34,2.42,1.45.56,3.16.85,5.13.85s3.61-.28,5.04-.85c1.42-.56,2.52-1.37,3.29-2.42s1.16-2.29,1.16-3.7v-13.63h-2.02v13.99Z"/>
      <path class="cls-1" d="M483.92,124.1c-1.66-.82-3.6-1.22-5.82-1.22h-9.9v20.2h9.9c2.22,0,4.16-.41,5.82-1.22,1.66-.82,2.94-1.99,3.85-3.51.91-1.52,1.36-3.31,1.36-5.37s-.45-3.84-1.36-5.37-2.19-2.69-3.85-3.51ZM486,137.3c-.72,1.22-1.77,2.16-3.13,2.8-1.36.65-2.98.97-4.85.97h-7.8v-16.21h7.8c1.87,0,3.48.32,4.85.97,1.36.65,2.41,1.58,3.13,2.8s1.09,2.66,1.09,4.33-.36,3.11-1.09,4.33Z"/>
      <rect class="cls-1" x="494" y="122.87" width="2.02" height="20.2"/>
      <path class="cls-1" d="M522.52,127.39c-.93-1.58-2.26-2.8-3.99-3.65-1.73-.85-3.76-1.28-6.1-1.28s-4.38.43-6.12,1.28c-1.74.85-3.08,2.07-4.01,3.65-.93,1.58-1.4,3.44-1.4,5.58s.47,4,1.4,5.58c.93,1.58,2.27,2.8,4.01,3.65,1.74.85,3.78,1.28,6.12,1.28s4.37-.42,6.1-1.28c1.73-.85,3.06-2.07,3.99-3.65.93-1.58,1.4-3.44,1.4-5.58s-.47-4-1.4-5.58ZM520.73,137.54c-.77,1.28-1.86,2.26-3.27,2.93-1.41.67-3.09,1.01-5.03,1.01s-3.62-.34-5.05-1.01c-1.43-.67-2.53-1.65-3.29-2.93s-1.15-2.8-1.15-4.57.38-3.29,1.15-4.57c.77-1.28,1.86-2.25,3.29-2.93,1.43-.67,3.11-1.01,5.05-1.01s3.61.34,5.03,1.01c1.41.67,2.5,1.65,3.27,2.93.77,1.28,1.15,2.8,1.15,4.57s-.38,3.29-1.15,4.57Z"/>
    </g>
  </g>
</svg>