<?xml version="1.0" encoding="UTF-8"?>
<svg id="Layer_2" data-name="Layer 2" xmlns="http://www.w3.org/2000/svg" viewBox="0 0 251.68 73.52">
  <defs>
    <style>
      .cls-1 {
        fill: #3d1900;
      }
    </style>
  </defs>
  <g id="Layer_1-2" data-name="Layer 1">
    <g>
      <path class="cls-1" d="M43.56.09c-10.06-.68-22.24,7.21-24.1,17.52-.06.31-.06.62-.12.87-.06.75-.12,1.62-.12,2.36.06.99.81,1.49,1.62,1.43.37.12.75.19,1.37.12.87-.19,1.55-.87,1.8-1.8.25-.62,0-1.37,0-2.05.06-1.99.19-3.73,1.24-5.53,1.86-3.35,5.59-6.21,9.57-7.89,5.9-1.86,14.23-2.17,17.39,2.17,4.22,7.83.37,17.58-3.73,24.72-3.29,5.71-7.76,10.56-13.23,13.85-3.04,1.3-6.4,2.11-9.75,2.3-2.42.19-4.66-.12-7.02-.56l-.37-.19c-2.11-.99-2.92-2.17-1.99-4.47v-.12c.99-1.18,1.8-2.42,2.73-3.54,4.35-5.71,8.51-11.62,12.73-17.46,2.11-2.86,4.16-5.65,6.71-8.08,1.49-1.43,3.11-2.24,4.85-3.42.62-.37,1.3-.62,1.68-1.49.37-.99-.19-1.99-1.06-2.48-.25-.19-.43-.31-.75-.37-.31-.25-.75-.37-1.24-.19-3.23.93-5.72,4.22-7.77,6.71-3.73,4.47-7.08,9.32-10.5,14.1-2.86,4.04-5.78,8.2-8.82,12.18-1.68,1.93-3.35,3.85-5.28,5.4-1.43,1.06-2.86,1.49-4.6,1.93-.43.12-.93.25-1.3.43-1.8.68-3.35,1.68-3.48,3.48-.12,1.61.81,2.36,1.99,2.55.62.19,1.37.19,2.24.06,1.24-.19,2.42-.75,3.67-1.06,2.17-.56,4.1-.37,6.21,0,.81.25,1.68.5,2.49.62,2.42.31,4.72.44,7.14.37,6.83-.31,13.48-2.55,18.95-6.65,7.7-5.84,13.54-15.47,15.41-24.85C60.2,10.78,54.8.71,43.56.09Z"/>
      <path class="cls-1" d="M176.16,29.29c-.68-5.9-2.86-12.05-1.62-17.95.68-2.3,1.8-4.41,3.73-5.96,1.55-1.24,3.23-1.99,5.28-1.93,2.49.06,5.65,2.11,5.4,4.72-.12.5-.37,1.06-.62,1.49-.12.19-.25.37-.37.62-.12.06-.12.25-.19.31-.5.62-1.24,1.18-1.99,1.68-.56.37-.81,1.24-.19,1.8,1.06.87,2.61,1.24,3.85.31.5-.31.99-.87,1.3-1.37.56-.75.87-1.55,1.18-2.3.06-.12.06-.31.12-.43.12-.19.12-.37.06-.56.43-2.17-.06-4.22-1.24-5.9-.06,0-.06-.06-.12-.12-.06-.25-.25-.37-.37-.43-1.99-2.24-5.09-3.48-8.32-3.23-2.49-.06-4.85,1.12-6.71,2.92-4.41,3.35-5.96,9.32-5.9,15.03-.25,5.22,1.06,10.25,1.18,15.53.12,6.77-3.42,13.48-9.82,15.1-2.3.37-4.66.31-6.77-.37-4.72-1.61-6.83-5.9-7.52-10.44v-.31c-.06-3.54,1.06-6.71,2.92-9.44.81-.87,1.68-1.55,2.67-2.11,1.62-.81,3.11-.5,4.72-.93,1.8-.43,2.3-2.24,1.24-3.79-1.49-2.11-4.04-1.3-6.34.31-6.27,3.29-10.19,10.75-9.07,17.83.17,1.21.47,2.36.88,3.43-.3-.05-.61.04-.88.36-.75.99-1.62,1.86-2.49,2.73-.56.5-1.24,1.06-1.86,1.55-.31.19-.62.37-1.06.56-.44.19-.93.31-1.37.19-1.8-.37-.68-2.86.06-3.98.81-1.37,1.86-2.55,2.73-3.91.62-.81,1.12-1.61,1.3-2.36.31-1.74-.56-3.67-2.42-3.91-1.86-.19-4.16.81-5.96,2.36-1.24,1.06-2.55,2.36-3.67,2.42-.87,0-1.06-.56-1.43-1.12-.06-.12-.06-.31-.19-.43-.81-1.74-2.05-2.11-3.48-1.74-1.49.37-3.23,1.8-4.66,3.04-1.07,1.02-2.87,3.18-3.93,4.55-.06.05-.11.1-.16.17,0,.02,0,.03,0,.05-.04.05-.07.09-.1.14,0,0-.02,0-.02,0-.81.93-1.86,2.05-2.98,2.42-.37.19-.68-.25-.5-.56,1.43-2.48,2.3-5.16,2.55-7.76.19-3.23-1.06-5.4-3.73-5.4-.5,0-1.18.19-1.99.5h-.06c-.93.37-1.8,1.12-2.48,1.93-.12.12-.31.19-.5.06-.25-.19-.56-.25-1.06,0-2.99,1.79-5.91,5.22-6.96,8.92-1.11.97-2.06,1.23-2.72,1.01-.25-.19-.56-.43-.62-.81-.06-.25.06-.87.19-1.12,1.37-2.17,2.92-4.91,2.55-7.14-.31-1.68-1.37-2.24-2.42-2.05h-.06c-3.79.75-5.9,6.09-5.09,9.94,0,.44,0,.99-.25,1.43-.12.31-.31.56-.56.75-.75.62-1.49,1.18-2.17,1.68l-.06.06c-.31.12-.56.31-.87.5-.75.37-1.55.68-2.36.87-1.93.37-2.49-.87-2.11-2.61.25-1.12.81-2.17,1.37-3.17.31-.37.56-.81.75-1.18.62-1.06,1.68-3.11,1.49-4.91-.06-1.18-.62-2.48-2.48-2.67-2.48-.37-5.03,2.42-7.14,4.97-1.86,2.17-3.42,4.29-3.73,4.66-.02.03-.03.05-.05.08-.56.64-1.14,1.24-1.81,1.79-1.12.99-2.98,2.48-4.85,2.92-2.86.68-6.89.37-8.14-1.93-.19-.56-.12-1.18.56-1.49h.12c.93-.19,1.99-.37,3.23-.62,3.54-.56,7.64-2.05,9.38-4.66,1.55-2.48.43-5.03-2.67-5.65-1.24-.25-3.29-.06-4.35.25-3.42,1.18-6.4,3.11-8.51,5.84-2.55,2.98-3.73,6.96-.81,10.31,3.11,3.54,11.12,1.99,14.97-.87,1.55-1.24,2.98-2.48,3.35-2.92.81-.81,1.49-1.61,2.05-2.3.08-.1.13-.2.16-.3.55-.64,1.13-1.35,1.7-2.06,1.93-2.17,4.16-4.53,5.16-3.42.43.56-.25,1.68-.62,2.17-.62,1.06-1.37,2.11-2.05,3.17-1.43,2.11-3.17,5.4-1.06,7.64,1.24,1.43,3.73,1.12,5.59.44,3.48-1.3,6.46-3.79,7.08-4.29.31-.25.81-.44,1.18-.5.31-.06.68-.06,1.06,0,1.63.6,3.59.29,5.25-.58.05,1.02.27,2.03.71,3.01,1.99,4.22,6.21,3.29,9.38.87.56-.44.99-.81,1.49-1.3.06-.19.31-.19.43-.19,1.49.34,4.3-.48,7.16-3.48.08-.05.15-.11.23-.18.81-.93,1.74-1.99,2.73-3.23,1.12-1.3,2.79-2.98,4.29-2.55,2.42.75.06,3.98-.75,5.03-1.18,1.68-4.1,4.72-4.1,5.9.12,1.61.99,2.24,2.11,1.99,1.49-.25,2.55-1.43,3.29-2.67.25-.5,3.91-5.47,5.53-7.39.87-.99,1.93-2.24,3.23-2.86,1.37-.68,3.04-.25,2.73,1.18-.12.56-.5.99-.68,1.43-.43.68-.99,1.55-1.49,2.42-.62.99-1.12,1.93-1.37,2.86-.62,1.8-.37,3.98,1.49,4.78,0,0,.06,0,.12.06.81.31,1.93.31,3.11-.19,0,.06.25-.12.25-.12,2.48-.99,4.66-3.04,6.52-5.09.75-.87,1.49-1.62,1.99-2.3.04-.05.07-.11.1-.16,3.36,6.22,10.7,9.38,18.09,7.49,10.31-2.67,14.91-12.86,13.67-22.8ZM55.97,41.34c1.43-1.8,3.67-3.29,5.47-3.79v-.06c1.24-.19,2.24-.06,2.55.75.75,1.68-1.06,2.73-2.73,3.48-1.49.5-3.17.75-4.54.93-.31,0-.68-.12-.81-.37-.12-.31-.12-.62.06-.93ZM92.06,39.54q-.19.06-.25-.06c-.06-.06-.06-.12-.06-.19,0-.25.06-.5.12-.68.12-.62,1.24-3.42,1.43-2.3.12.75-.19,1.74-.62,2.67-.25.25-.43.43-.62.56ZM104.73,47.74c-.93.5-1.93.68-2.98.56-2.98-.37-2.61-3.66-1.8-5.59.5-1.18,1.3-2.36,2.24-3.29.25-.37.68-.06.68.31-.12,1.3-.06,2.67.31,3.91.31,1.18.87,2.42,1.62,3.42.12.25.12.56-.06.68ZM108.09,44.32c-.37.37-.68.12-.75-.12-.44-.87-.5-2.05-.5-3.04-.06-1.18.06-2.48.43-3.67.62-1.55,2.67-3.48,3.42-1.68.81,2.05-1.06,6.83-2.61,8.51Z"/>
      <path class="cls-1" d="M249.7,42.89c-.81.99-1.62,1.93-2.61,2.73-1.12.99-2.98,2.48-4.85,2.92-2.86.68-6.89.37-8.14-1.93-.19-.56-.12-1.18.56-1.49h.12c.93-.19,1.99-.37,3.23-.62,3.54-.56,7.64-2.05,9.38-4.66,1.55-2.48.43-5.03-2.67-5.65-1.24-.25-3.29-.06-4.35.25-3.42,1.18-6.4,3.11-8.51,5.84-.97,1.13-1.74,2.41-2.16,3.74-.54.61-1.09,1.21-1.63,1.79-.87.68-1.68,1.43-2.67,1.99-.5.37-1.18.62-1.99.87-2.49.31-2.86-1.86-1.8-3.67,1.12-1.93,2.98-3.73,4.54-5.22,1.24-1.18,2.79-2.73,2.24-4.22,0-.25-.06-.5-.25-.75-.43-.75-1.55-1.37-2.36-.62-.68.81-1.43,1.8-2.55,2.73-.25.19-.56.31-.93.31-.43.06-.68-.25-.87-.56-.5-1.49-1.74-2.55-3.79-2.61-4.04-.25-8.51,2.73-11.24,5.4-.99.99-2.17,2.33-3.13,3.81-.01.01-.03.02-.04.04-.75.93-1.55,1.8-2.36,2.67-.68.5-1.24.99-1.86,1.49-.31.19-.62.43-1.06.62-.43.12-.87.25-1.37.12-1.74-.37-.62-2.8.06-3.85.81-1.37,1.86-2.55,2.73-3.91.56-.75,1.12-1.49,1.24-2.3.31-1.68-.56-3.6-2.42-3.85-2.17-.75-4.78.99-6.46,2.11-.68.5-1.24.99-1.8,1.49-.12.06-.25.12-.37.19-.37.12-.37.06-.43-.25,0-.12,0-.25.06-.37.62-1.06,1.24-2.05,1.8-3.04.25-.37.43-.68.68-1.06,1.8-2.55,3.67-5.03,5.47-7.58.81-1.12,8.51-8.7,4.22-9.81-.75-.19-1.43.06-2.05.43-.25,0-.56.19-.75.44-.06.12-.12.19-.19.25-.31.31-.56.68-.81.93-.93,1.12-1.74,2.36-2.55,3.67-5.71,7.64-12.24,14.78-18.26,22.18-.87,1.06.75,2.67,1.62,1.55,2.11-2.61,4.35-5.22,6.52-7.76q.06-.06.12-.12c.25-.06.31-.12.31,0,.06.12.06.25,0,.37-.87,1.49-1.68,2.92-2.61,4.41-.93,1.68-2.11,3.29-2.92,4.97-.31.68-.62,1.24-1.06,1.8-.37.62-.93,1.24-.87,1.99.06.93.93,1.49,1.8,1.55.31.06.56.06.87.06,1.49-.31,2.48-1.49,3.29-2.67.25-.56,3.85-5.4,5.4-7.27.93-.99,1.86-2.24,3.11-2.8,1.37-.68,3.04-.31,2.73,1.18-.12.5-.5.93-.68,1.3-.37.68-.93,1.55-1.43,2.42v.06c-.62.93-1.18,1.8-1.43,2.73-.56,1.74-.31,3.91,1.49,4.72q.06,0,.12.06h.06c.81.31,1.86.31,3.04-.12,0,0,.25-.19.25-.12,1.84-.75,3.53-2.11,5-3.62.03.6.15,1.19.4,1.76,1.8,3.98,6.34,1.93,9.07.31.87-.56,1.8-1.12,2.86-1.8.37-.19.81-.37,1.18-.37.68.06.99.56,1.24,1.06.56,1.86,2.3,3.29,4.78,3.17,3.19-.17,6.12-2.54,8.46-5.04.23,1,.72,1.99,1.54,2.93,3.11,3.54,11.12,1.99,14.97-.87,1.55-1.24,2.98-2.48,3.35-2.92.81-.81,1.49-1.61,2.05-2.3.87-1.12-.81-2.73-1.74-1.62ZM234.98,41.34c1.43-1.8,3.67-3.29,5.47-3.79v-.06c1.24-.19,2.24-.06,2.55.75.75,1.68-1.06,2.73-2.73,3.48-1.49.5-3.17.75-4.54.93-.31,0-.68-.12-.81-.37-.12-.31-.12-.62.06-.93ZM215.16,44.01c-.87.99-1.8,1.86-2.98,2.48-.99.56-2.55,1.3-3.67,1.3-2.67.12-3.23-2.24-2.3-4.1,1.37-2.61,4.35-4.66,7.02-5.65,1.74-.62,3.29-.99,4.66.44,1.24,1.12-2.24,5.09-2.73,5.53Z"/>
      <path class="cls-1" d="M64.82,70.71c-.55-.33-.61-.32-1.09.12-.07.06-.14.12-.21.17-.96.68-2.01.75-3.12.53-.99-.2-1.66-.74-1.97-1.71-.21-.64-.17-1.27-.01-1.91.56-2.26,2.88-2.91,4.61-1.76.29.2.6.36.94.48.16.06.33.1.46.01.85-.53,1.14-.92.34-1.66-.94-.87-2.06-1.25-3.45-1.25-1.51-.01-2.83.49-3.82,1.53-.54.57-.91,1.25-1.16,1.98-.5,1.43-.4,2.85.39,4.12.77,1.24,2.01,1.81,3.42,2.06.9.16,1.79.1,2.68-.02,1.04-.14,1.95-.57,2.7-1.31.32-.32.29-.65-.06-.93-.2-.16-.42-.32-.64-.45Z"/>
      <path class="cls-1" d="M77.16,72.79c-.72-.47-1.23-1.15-1.75-1.82-.18-.23-.17-.48-.04-.73.05-.1.12-.2.2-.29.26-.3.54-.57.78-.89.5-.66.51-1.43.47-2.21-.05-1.05-.6-1.79-1.48-2.3-.67-.39-1.41-.57-2.18-.61-1.27-.06-2.54-.05-3.8-.04-.54,0-1.08,0-1.62.04-.48.03-.59.17-.59.64v3.64c-.03,1.64,0,2.87.04,4.1,0,.24-.01.49.04.73.08.38.1.41.49.43.38.02.76.03,1.13.04.34,0,.46-.09.48-.44.03-.55.02-1.1.03-1.65,0-.13,0-.25.04-.38.08-.34.26-.5.61-.51.31,0,.62,0,.93,0,.46,0,.87.14,1.22.45.25.22.5.44.73.69.46.5.93,1,1.47,1.42.25.2.53.3.86.3.58-.01,1.16,0,1.74,0,.09,0,.18,0,.26-.02.21-.06.27-.27.14-.44-.05-.06-.11-.1-.17-.15ZM74.82,67.72c-.13.39-.45.59-.82.72-.44.15-.9.14-1.36.16-.36,0-.71,0-1.07,0,0,0-1.11.03-1.67.02-.36,0-.51-.14-.52-.49,0-.62,0-1.25.02-1.87,0-.31.15-.42.51-.47.54-.07,1.08-.09,1.62-.07.71.03,1.42.06,2.13.15.87.12,1.44,1.01,1.17,1.84Z"/>
      <path class="cls-1" d="M86.8,71.55c-.17,0-.34,0-.51.01-1.57.1-3.15.05-4.72.05-.4,0-.59-.16-.64-.55-.05-.38-.06-.77.01-1.15.05-.27.17-.43.46-.44.2,0,.41-.05.61-.05.85,0,1.7,0,2.55,0,.55,0,.67-.11.68-.65,0-.22,0-.43,0-.65,0-.48-.18-.63-.65-.58-1.06.1-2.13,0-3.19.05-.27.01-.46-.14-.48-.43-.02-.3-.04-.61-.01-.92.04-.4.17-.5.57-.51.18,0,.36,0,.54-.01,1.51-.02,3.01-.03,4.52-.05.38,0,.54-.14.58-.52.03-.25.02-.5,0-.75-.02-.34-.18-.49-.52-.49-1.21,0-2.43,0-3.64,0h0c-1.16-.01-2.31-.01-3.47-.01-.64,0-.73.09-.72.72.02,1.41.09,2.81.03,4.21-.05,1.39.07,2.76.04,4.15,0,.3.16.43.45.44.23,0,.45,0,.68.02,2.23.13,4.46.02,6.7.04.31,0,.5-.15.51-.46.02-.37.02-.75.01-1.12,0-.24-.16-.37-.4-.37Z"/>
      <path class="cls-1" d="M95.03,65.54c-.14-.32-.32-.62-.45-.95-.26-.62-.37-.71-1.06-.71-.15,0-.29,0-.44,0-.42-.02-.69.17-.83.56-.19.5-.39.99-.59,1.48-.99,2.38-1.98,4.76-2.97,7.14-.14.33-.12.35.25.42.3.06.61.05.92.04.55-.02.78-.19.94-.7.06-.18.12-.37.18-.55.16-.44.43-.64.89-.64,1.08,0,2.15-.01,3.23-.02.25,0,.43.1.55.32.15.28.3.56.41.85.22.55.41.68,1,.68.1,0,.2,0,.31,0h0c.11,0,.23,0,.34,0,.79,0,.91-.18.57-.87-1.14-2.32-2.18-4.69-3.25-7.05ZM94.37,69.91c-.13.01-.27,0-.41.01-.12,0-.25,0-.37,0-.44.02-.88-.05-1.32-.06-.31-.01-.36-.11-.23-.38.42-.85.69-1.76,1.05-2.64.05-.12.06-.29.22-.31.15-.02.17.15.23.26.47.86.78,1.78,1.13,2.68.12.3.03.41-.3.44Z"/>
      <path class="cls-1" d="M107.95,64.1c-2.13.03-4.26.02-6.39,0-.41,0-.81-.04-1.22-.05-.33,0-.51.15-.5.49,0,.29,0,.59.02.88.02.47.12.57.6.58.63.01,1.27,0,1.9,0,.83,0,.84.02.85.86,0,1.27,0,2.54,0,3.81,0,.7,0,1.41,0,2.11,0,.56.15.71.7.74.31.02.61,0,.92,0,.33-.01.44-.2.48-.46.02-.14.02-.29.02-.44,0-.96-.03-1.93-.03-2.89,0-.77,0-1.54,0-2.31,0-.29,0-.59.01-.88.03-.45.12-.52.56-.52.7,0,1.41,0,2.11,0,.53,0,.65-.15.66-.67,0-.17,0-.34,0-.51,0-.62-.09-.71-.71-.7Z"/>
      <path class="cls-1" d="M112.14,64.31c0-.23-.12-.32-.35-.31-.43,0-.86,0-1.29,0-.32,0-.46.16-.46.46,0,.26.03.52.02.78-.07,1.97-.01,3.94,0,5.92,0,.6.02,1.2.03,1.8,0,.28.14.43.41.49.28.06.56.07.84.07.65-.01.78-.13.78-.78,0-1.33,0-2.65,0-3.93.04-1.23-.04-2.41.05-3.59.02-.3-.02-.61-.03-.92Z"/>
      <path class="cls-1" d="M122.66,64.09c-.29,0-.59,0-.88,0-.72,0-.82.09-1.01.78-.02.08-.04.15-.07.23-.67,1.71-1.17,3.47-1.92,5.15-.08.18-.09.47-.32.48-.24,0-.28-.29-.36-.48-.65-1.71-1.3-3.42-1.93-5.14-.36-.98-.44-1.07-1.46-.98-.28,0-.57-.03-.85,0-.32.04-.37.15-.24.44.26.6.56,1.19.79,1.8.84,2.21,1.74,4.39,2.69,6.56.23.52.33.6.89.59.34,0,.68-.03,1.02-.02.36,0,.54-.16.68-.49.74-1.82,1.5-3.64,2.25-5.45.39-.95.79-1.9,1.17-2.86.17-.43.02-.61-.45-.61Z"/>
      <path class="cls-1" d="M132.58,71.55c-.17,0-.34,0-.51.01-1.57.1-3.15.05-4.72.05-.4,0-.59-.16-.64-.55-.05-.38-.06-.77.01-1.15.05-.27.17-.43.46-.44.2,0,.41-.05.61-.05.85,0,1.7,0,2.55,0,.55,0,.67-.11.68-.65,0-.22,0-.43,0-.65,0-.48-.18-.63-.65-.58-1.06.1-2.13,0-3.19.05-.27.01-.46-.14-.48-.43-.02-.3-.04-.61-.01-.92.04-.4.17-.5.57-.51.18,0,.36,0,.54-.01,1.51-.02,3.01-.03,4.52-.05.38,0,.54-.14.58-.52.03-.25.02-.5,0-.75-.02-.34-.18-.49-.52-.49-1.21,0-2.43,0-3.64,0h0c-1.16-.01-2.31-.01-3.47-.01-.64,0-.73.09-.72.72.02,1.41.09,2.81.03,4.21-.05,1.39.07,2.76.04,4.15,0,.3.16.43.45.44.23,0,.45,0,.68.02,2.23.13,4.46.02,6.7.04.31,0,.5-.15.51-.46.02-.37.02-.75.01-1.12,0-.24-.16-.37-.4-.37Z"/>
      <path class="cls-1" d="M146.94,68.52c-.59-.33-1.24-.49-1.87-.71-.82-.28-1.69-.43-2.49-.77-.23-.1-.45-.23-.46-.53-.02-.32.16-.52.41-.65.33-.18.68-.3,1.07-.3.94,0,1.85.15,2.64.7.27.19.57.29.85.08.25-.19.47-.43.61-.72.11-.21.08-.39-.08-.56-.28-.29-.58-.54-.94-.71-.63-.31-1.3-.45-1.99-.53-1.23-.14-2.42-.04-3.5.65-1.6,1.04-1.61,2.86-.06,3.97.88.63,1.88.86,2.91,1.05.61.11,1.19.29,1.67.7.38.32.35.76-.03,1.07-.23.18-.49.29-.77.35-1.17.25-2.18-.14-3.1-.83-.22-.17-.42-.35-.73-.18-.36.2-.66.48-.92.79-.2.24-.21.49.03.72.21.2.43.37.67.52,1.17.7,2.44.94,3.78.88.18,0,.36.01.54,0,.91-.08,1.74-.37,2.36-1.06,1.08-1.21.99-3.05-.61-3.93Z"/>
      <path class="cls-1" d="M157.76,64.1c-2.13.03-4.26.02-6.39,0-.41,0-.81-.04-1.22-.05-.33,0-.51.15-.5.49,0,.29,0,.59.02.88.02.47.12.57.6.58.63.01,1.27,0,1.9,0,.83,0,.84.02.85.86,0,1.27,0,2.54,0,3.81,0,.7,0,1.41,0,2.11,0,.56.15.71.7.74.31.02.61,0,.92,0,.33-.01.44-.2.48-.46.02-.14.02-.29.02-.44,0-.96-.03-1.93-.03-2.89,0-.77,0-1.54,0-2.31,0-.29,0-.59.01-.88.03-.45.12-.52.56-.52.7,0,1.41,0,2.11,0,.53,0,.65-.15.66-.67,0-.17,0-.34,0-.51,0-.62-.09-.71-.71-.7Z"/>
      <path class="cls-1" d="M168.46,63.85c-.37.01-.75,0-1.12,0-.43,0-.56.1-.56.53,0,1.09,0,2.18.03,3.26.02.69.03,1.38-.05,2.07-.09.81-.51,1.38-1.31,1.65-.48.16-.96.2-1.47.14-1.17-.15-1.89-.71-1.98-2.1-.07-1.09-.01-2.2,0-3.3,0-.56.01-1.11,0-1.67-.01-.5-.1-.58-.61-.59-.23,0-.45,0-.68-.01-.73-.03-.85.08-.86.8,0,.8-.01,1.61.03,2.41,0,1-.02,1.99,0,2.99.03,1.31.74,2.16,1.78,2.77,1.21.72,2.55.82,3.91.59,1.55-.26,3.37-1.5,3.37-4.03,0-1.6,0-3.2,0-4.79,0-.12-.01-.25-.04-.37-.04-.24-.18-.37-.45-.36Z"/>
      <path class="cls-1" d="M175.88,64.13c-1.68-.32-3.39-.15-5.08-.22-.32-.01-.47.18-.47.49.01.5.06,1,.03,1.49-.07,1.24,0,2.47.03,3.7,0,.26,0,.52,0,.78,0,.86,0,1.72,0,2.58,0,.3.12.49.46.5,1.57.04,3.14.14,4.71-.07.98-.13,1.9-.44,2.71-1,1.26-.88,1.56-2.22,1.62-3.64.04-1.02-.21-1.96-.83-2.8-.8-1.09-1.92-1.58-3.19-1.82ZM177.4,70.3c-.42.77-1.14,1.11-1.96,1.25-.59.1-1.19.19-1.79.15-.25,0-.5,0-.75,0-.24,0-.35-.13-.37-.39-.08-1.71-.04-3.42-.05-5.13,0-.49.06-.55.55-.54.84.01,1.67.1,2.49.32,1.93.52,2.83,2.58,1.88,4.33Z"/>
      <path class="cls-1" d="M183.4,64.31c0-.23-.12-.32-.35-.31-.43,0-.86,0-1.29,0-.32,0-.46.16-.46.46,0,.26.03.52.02.78-.07,1.97-.01,3.94,0,5.92,0,.6.02,1.2.03,1.8,0,.28.14.43.41.49.28.06.56.07.84.07.65-.01.78-.13.78-.78,0-1.33,0-2.65,0-3.93.04-1.23-.04-2.41.05-3.59.02-.3-.02-.61-.03-.92Z"/>
      <path class="cls-1" d="M193.31,64.52c-.98-.61-2.1-.87-3.28-.79-2.03.14-3.64.94-4.61,2.8-.5.96-.72,2-.53,3.06.27,1.55,1.25,2.61,2.62,3.3,1.29.66,2.66.77,4.06.49,2.38-.46,4.13-2.42,4.09-4.88-.02-1.78-.9-3.08-2.36-3.99ZM190.53,71.63c-1.85.08-3.32-1.01-3.4-2.5-.12-2.18,1.23-3.39,3.11-3.57,1.71-.17,3.05,1.38,3.05,3.13-.04,1.5-.89,2.87-2.76,2.95Z"/>
    </g>
  </g>
</svg>