<?xml version="1.0" encoding="UTF-8"?>
<svg id="Layer_2" data-name="Layer 2" xmlns="http://www.w3.org/2000/svg" viewBox="0 0 242.21 75.86">
  <defs>
    <style>
      .cls-1 {
        fill: #3d1900;
      }
    </style>
  </defs>
  <g id="Layer_1-2" data-name="Layer 1">
    <g>
      <path class="cls-1" d="M60.08,73.05c-.55-.33-.61-.32-1.09.12-.07.06-.14.12-.21.17-.96.68-2.01.75-3.12.53-.99-.2-1.66-.74-1.97-1.71-.21-.64-.17-1.27-.01-1.91.56-2.26,2.88-2.91,4.61-1.76.29.2.6.36.94.48.16.06.33.1.46.01.85-.53,1.14-.92.34-1.66-.94-.87-2.06-1.25-3.45-1.25-1.51-.01-2.83.49-3.82,1.53-.54.57-.91,1.25-1.16,1.98-.5,1.43-.4,2.85.39,4.12.77,1.24,2.01,1.81,3.42,2.06.9.16,1.79.1,2.68-.02,1.04-.14,1.95-.57,2.7-1.31.32-.32.29-.65-.06-.93-.2-.16-.42-.32-.64-.45Z"/>
      <path class="cls-1" d="M72.43,75.13c-.72-.47-1.23-1.15-1.75-1.82-.18-.23-.17-.48-.04-.73.05-.1.12-.2.2-.29.26-.3.54-.57.78-.89.5-.66.51-1.43.47-2.21-.05-1.05-.6-1.79-1.48-2.3-.67-.39-1.41-.57-2.18-.61-1.27-.06-2.54-.05-3.8-.04-.54,0-1.08,0-1.62.04-.48.03-.59.17-.59.64v3.64c-.03,1.64,0,2.87.04,4.1,0,.24-.01.49.04.73.08.38.1.41.49.43.38.02.76.03,1.13.04.34,0,.46-.09.48-.44.03-.55.02-1.1.03-1.65,0-.13,0-.25.04-.38.08-.34.26-.5.61-.51.31,0,.62,0,.93,0,.46,0,.87.14,1.22.45.25.22.5.44.73.69.46.5.93,1,1.47,1.42.25.2.53.3.86.3.58-.01,1.16,0,1.74,0,.09,0,.18,0,.26-.02.21-.06.27-.27.14-.44-.05-.06-.11-.1-.17-.15ZM70.09,70.05c-.13.39-.45.59-.82.72-.44.15-.9.14-1.36.16-.36,0-.71,0-1.07,0,0,0-1.11.03-1.67.02-.36,0-.51-.14-.52-.49,0-.62,0-1.25.02-1.87,0-.31.15-.42.51-.47.54-.07,1.08-.09,1.62-.07.71.03,1.42.06,2.13.15.87.12,1.44,1.01,1.17,1.84Z"/>
      <path class="cls-1" d="M82.07,73.89c-.17,0-.34,0-.51.01-1.57.1-3.15.05-4.72.05-.4,0-.59-.16-.64-.55-.05-.38-.06-.77.01-1.15.05-.27.17-.43.46-.44.2,0,.41-.05.61-.05.85,0,1.7,0,2.55,0,.55,0,.67-.11.68-.65,0-.22,0-.43,0-.65,0-.48-.18-.63-.65-.58-1.06.1-2.13,0-3.19.05-.27.01-.46-.14-.48-.43-.02-.3-.04-.61-.01-.92.04-.4.17-.5.57-.51.18,0,.36,0,.54-.01,1.51-.02,3.01-.03,4.52-.05.38,0,.54-.14.58-.52.03-.25.02-.5,0-.75-.02-.34-.18-.49-.52-.49-1.21,0-2.43,0-3.64,0h0c-1.16-.01-2.31-.01-3.47-.01-.64,0-.73.09-.72.72.02,1.41.09,2.81.03,4.21-.05,1.39.07,2.76.04,4.15,0,.3.16.43.45.44.23,0,.45,0,.68.02,2.23.13,4.46.02,6.7.04.31,0,.5-.15.51-.46.02-.37.02-.75.01-1.12,0-.24-.16-.37-.4-.37Z"/>
      <path class="cls-1" d="M90.29,67.88c-.14-.32-.32-.62-.45-.95-.26-.62-.37-.71-1.06-.71-.15,0-.29,0-.44,0-.42-.02-.69.17-.83.56-.19.5-.39.99-.59,1.48-.99,2.38-1.98,4.76-2.97,7.14-.14.33-.12.35.25.42.3.06.61.05.92.04.55-.02.78-.19.94-.7.06-.18.12-.37.18-.55.16-.44.43-.64.89-.64,1.08,0,2.15-.01,3.23-.02.25,0,.43.1.55.32.15.28.3.56.41.85.22.55.41.68,1,.68.1,0,.2,0,.31,0h0c.11,0,.23,0,.34,0,.79,0,.91-.18.57-.87-1.14-2.32-2.18-4.69-3.25-7.05ZM89.64,72.24c-.13.01-.27,0-.41.01-.12,0-.25,0-.37,0-.44.02-.88-.05-1.32-.06-.31-.01-.36-.11-.23-.38.42-.85.69-1.76,1.05-2.64.05-.12.06-.29.22-.31.15-.02.17.15.23.26.47.86.78,1.78,1.13,2.68.12.3.03.41-.3.44Z"/>
      <path class="cls-1" d="M103.21,66.44c-2.13.03-4.26.02-6.39,0-.41,0-.81-.04-1.22-.05-.33,0-.51.15-.5.49,0,.29,0,.59.02.88.02.47.12.57.6.58.63.01,1.27,0,1.9,0,.83,0,.84.02.85.86,0,1.27,0,2.54,0,3.81,0,.7,0,1.41,0,2.11,0,.56.15.71.7.74.31.02.61,0,.92,0,.33-.01.44-.2.48-.46.02-.14.02-.29.02-.44,0-.96-.03-1.93-.03-2.89,0-.77,0-1.54,0-2.31,0-.29,0-.59.01-.88.03-.45.12-.52.56-.52.7,0,1.41,0,2.11,0,.53,0,.65-.15.66-.67,0-.17,0-.34,0-.51,0-.62-.09-.71-.71-.7Z"/>
      <path class="cls-1" d="M107.41,66.65c0-.23-.12-.32-.35-.31-.43,0-.86,0-1.29,0-.32,0-.46.16-.46.46,0,.26.03.52.02.78-.07,1.97-.01,3.94,0,5.92,0,.6.02,1.2.03,1.8,0,.28.14.43.41.49.28.06.56.07.84.07.65-.01.78-.13.78-.78,0-1.33,0-2.65,0-3.93.04-1.23-.04-2.41.05-3.59.02-.3-.02-.61-.03-.92Z"/>
      <path class="cls-1" d="M117.93,66.43c-.29,0-.59,0-.88,0-.72,0-.82.09-1.01.78-.02.08-.04.15-.07.23-.67,1.71-1.17,3.47-1.92,5.15-.08.18-.09.47-.32.48-.24,0-.28-.29-.36-.48-.65-1.71-1.3-3.42-1.93-5.14-.36-.98-.44-1.07-1.46-.98-.28,0-.57-.03-.85,0-.32.04-.37.15-.24.44.26.6.56,1.19.79,1.8.84,2.21,1.74,4.39,2.69,6.56.23.52.33.6.89.59.34,0,.68-.03,1.02-.02.36,0,.54-.16.68-.49.74-1.82,1.5-3.64,2.25-5.45.39-.95.79-1.9,1.17-2.86.17-.43.02-.61-.45-.61Z"/>
      <path class="cls-1" d="M127.84,73.89c-.17,0-.34,0-.51.01-1.57.1-3.15.05-4.72.05-.4,0-.59-.16-.64-.55-.05-.38-.06-.77.01-1.15.05-.27.17-.43.46-.44.2,0,.41-.05.61-.05.85,0,1.7,0,2.55,0,.55,0,.67-.11.68-.65,0-.22,0-.43,0-.65,0-.48-.18-.63-.65-.58-1.06.1-2.13,0-3.19.05-.27.01-.46-.14-.48-.43-.02-.3-.04-.61-.01-.92.04-.4.17-.5.57-.51.18,0,.36,0,.54-.01,1.51-.02,3.01-.03,4.52-.05.38,0,.54-.14.58-.52.03-.25.02-.5,0-.75-.02-.34-.18-.49-.52-.49-1.21,0-2.43,0-3.64,0h0c-1.16-.01-2.31-.01-3.47-.01-.64,0-.73.09-.72.72.02,1.41.09,2.81.03,4.21-.05,1.39.07,2.76.04,4.15,0,.3.16.43.45.44.23,0,.45,0,.68.02,2.23.13,4.46.02,6.7.04.31,0,.5-.15.51-.46.02-.37.02-.75.01-1.12,0-.24-.16-.37-.4-.37Z"/>
      <path class="cls-1" d="M142.21,70.86c-.59-.33-1.24-.49-1.87-.71-.82-.28-1.69-.43-2.49-.77-.23-.1-.45-.23-.46-.53-.02-.32.16-.52.41-.65.33-.18.68-.3,1.07-.3.94,0,1.85.15,2.64.7.27.19.57.29.85.08.25-.19.47-.43.61-.72.11-.21.08-.39-.08-.56-.28-.29-.58-.54-.94-.71-.63-.31-1.3-.45-1.99-.53-1.23-.14-2.42-.04-3.5.65-1.6,1.04-1.61,2.86-.06,3.97.88.63,1.88.86,2.91,1.05.61.11,1.19.29,1.67.7.38.32.35.76-.03,1.07-.23.18-.49.29-.77.35-1.17.25-2.18-.14-3.1-.83-.22-.17-.42-.35-.73-.18-.36.2-.66.48-.92.79-.2.24-.21.49.03.72.21.2.43.37.67.52,1.17.7,2.44.94,3.78.88.18,0,.36.01.54,0,.91-.08,1.74-.37,2.36-1.06,1.08-1.21.99-3.05-.61-3.93Z"/>
      <path class="cls-1" d="M153.02,66.44c-2.13.03-4.26.02-6.39,0-.41,0-.81-.04-1.22-.05-.33,0-.51.15-.5.49,0,.29,0,.59.02.88.02.47.12.57.6.58.63.01,1.27,0,1.9,0,.83,0,.84.02.85.86,0,1.27,0,2.54,0,3.81,0,.7,0,1.41,0,2.11,0,.56.15.71.7.74.31.02.61,0,.92,0,.33-.01.44-.2.48-.46.02-.14.02-.29.02-.44,0-.96-.03-1.93-.03-2.89,0-.77,0-1.54,0-2.31,0-.29,0-.59.01-.88.03-.45.12-.52.56-.52.7,0,1.41,0,2.11,0,.53,0,.65-.15.66-.67,0-.17,0-.34,0-.51,0-.62-.09-.71-.71-.7Z"/>
      <path class="cls-1" d="M163.73,66.19c-.37.01-.75,0-1.12,0-.43,0-.56.1-.56.53,0,1.09,0,2.18.03,3.26.02.69.03,1.38-.05,2.07-.09.81-.51,1.38-1.31,1.65-.48.16-.96.2-1.47.14-1.17-.15-1.89-.71-1.98-2.1-.07-1.09-.01-2.2,0-3.3,0-.56.01-1.11,0-1.67-.01-.5-.1-.58-.61-.59-.23,0-.45,0-.68-.01-.73-.03-.85.08-.86.8,0,.8-.01,1.61.03,2.41,0,1-.02,1.99,0,2.99.03,1.31.74,2.16,1.78,2.77,1.21.72,2.55.82,3.91.59,1.55-.26,3.37-1.5,3.37-4.03,0-1.6,0-3.2,0-4.79,0-.12-.01-.25-.04-.37-.04-.24-.18-.37-.45-.36Z"/>
      <path class="cls-1" d="M171.15,66.47c-1.68-.32-3.39-.15-5.08-.22-.32-.01-.47.18-.47.49.01.5.06,1,.03,1.49-.07,1.24,0,2.47.03,3.7,0,.26,0,.52,0,.78,0,.86,0,1.72,0,2.58,0,.3.12.49.46.5,1.57.04,3.14.14,4.71-.07.98-.13,1.9-.44,2.71-1,1.26-.88,1.56-2.22,1.62-3.64.04-1.02-.21-1.96-.83-2.8-.8-1.09-1.92-1.58-3.19-1.82ZM172.67,72.63c-.42.77-1.14,1.11-1.96,1.25-.59.1-1.19.19-1.79.15-.25,0-.5,0-.75,0-.24,0-.35-.13-.37-.39-.08-1.71-.04-3.42-.05-5.13,0-.49.06-.55.55-.54.84.01,1.67.1,2.49.32,1.93.52,2.83,2.58,1.88,4.33Z"/>
      <path class="cls-1" d="M178.66,66.65c0-.23-.12-.32-.35-.31-.43,0-.86,0-1.29,0-.32,0-.46.16-.46.46,0,.26.03.52.02.78-.07,1.97-.01,3.94,0,5.92,0,.6.02,1.2.03,1.8,0,.28.14.43.41.49.28.06.56.07.84.07.65-.01.78-.13.78-.78,0-1.33,0-2.65,0-3.93.04-1.23-.04-2.41.05-3.59.02-.3-.02-.61-.03-.92Z"/>
      <path class="cls-1" d="M188.57,66.86c-.98-.61-2.1-.87-3.28-.79-2.03.14-3.64.94-4.61,2.8-.5.96-.72,2-.53,3.06.27,1.55,1.25,2.61,2.62,3.3,1.29.66,2.66.77,4.06.49,2.38-.46,4.13-2.42,4.09-4.88-.02-1.78-.9-3.08-2.36-3.99ZM185.8,73.97c-1.85.08-3.32-1.01-3.4-2.5-.12-2.18,1.23-3.39,3.11-3.57,1.71-.17,3.05,1.38,3.05,3.13-.04,1.5-.89,2.87-2.76,2.95Z"/>
      <path class="cls-1" d="M42.34,4.57c-9.71.5-21.62,10.29-23.43,21.54-.06.34-.08.69-.12.94-.11.74-.14,1.77-.12,2.54.03,1.03.79,1.5,1.57,1.34.36.09.77.14,1.33-.03.81-.24,1.47-1.18,1.75-2.14.19-.67-.01-1.47,0-2.19.03-2.1.18-4.01,1.21-6.06,1.81-3.81,5.52-7.57,9.3-9.55,5.35-2.8,13.83-3.98,16.91.31,4.11,7.88.37,18.77-3.62,26.89-3.19,6.49-7.55,12.2-12.86,16.36-2.96,1.75-6.26,2.97-9.48,3.59-2.33.45-4.53.41-6.82.22-.12-.05-.24-.1-.36-.16-2.05-.82-2.84-1.99-1.93-4.55v-.13c.97-1.38,1.75-2.8,2.66-4.1,4.23-6.62,8.27-13.42,12.38-20.16,2.05-3.3,4.05-6.53,6.52-9.42,1.45-1.7,3.02-2.75,4.71-4.22.6-.47,1.3-.83,1.63-1.79.38-1.08-.18-2.11-1.03-2.54-.24-.17-.42-.28-.72-.31-.3-.23-.73-.31-1.21-.05-3.14,1.37-5.56,5.18-7.55,8.08-3.62,5.22-6.9,10.8-10.21,16.31-2.78,4.64-5.62,9.44-8.58,14.05-1.63,2.26-3.26,4.51-5.13,6.4-1.39,1.3-2.78,1.93-4.47,2.59-.42.18-.91.37-1.27.62-1.75.94-3.25,2.19-3.38,4.12-.11,1.74.88,2.36,1.93,2.49.57.07,1.33.04,2.17-.19,1.2-.34,2.36-1.08,3.56-1.56,2.11-.84,4.14-1,6.04-.72.74.11,1.64.35,2.41.37,2.32.08,4.62-.06,6.94-.43,6.59-1.05,13.11-4.29,18.42-9.31,7.49-7.14,13.14-18.15,14.98-28.38,2.02-11.25-3.27-21.34-14.13-20.77Z"/>
      <path class="cls-1" d="M136.17,46.02c.02.24.04.47.07.71,1.38,9.99,10.26,14.93,19.2,11.32,9.98-4.02,14.4-15.51,13.24-25.96-.69-6.2-2.77-12.56-1.57-19.01.66-2.54,1.75-4.93,3.61-6.81,1.5-1.51,3.14-2.49,5.12-2.67,2.4-.21,5.48,1.6,5.24,4.42-.12.55-.36,1.17-.6,1.67-.12.21-.24.43-.36.71-.12.08-.12.28-.18.35-.48.72-1.2,1.41-1.93,2.02-.54.46-.78,1.42-.18,1.95,1.02.81,2.53,1.03,3.73-.11.48-.39.96-1.05,1.26-1.61.54-.86.84-1.76,1.14-2.59.06-.14.06-.34.12-.48.12-.21.12-.41.06-.6.42-2.38-.06-4.51-1.2-6.17-.06,0-.06-.06-.12-.12-.06-.26-.24-.37-.36-.42-1.93-2.16-5.08-2.93-8.07-2.49-2.26.33-4.7,1.76-6.5,3.9-4.27,4.1-5.62,10.81-5.72,16.76-.09,5.46,1.04,10.85,1.14,16.47.14,7.21-3.31,14.81-9.51,17.28-2.23.66-4.51.87-6.56.39-4.58-1.18-6.62-5.52-7.28-10.29v-.33c-.02-1.24.1-2.45.31-3.63,0,0,0,0,0,0,.23-.35.28-.72.22-1.04.48-2.03,1.27-3.95,2.3-5.75.78-1.02,1.62-1.85,2.59-2.57,1.57-1.05,3.02-.92,4.58-1.54,1.71-.69,2.23-2.68,1.2-4.2-1.41-2.08-3.91-.93-6.14,1.07-4.94,3.45-8.33,9.68-8.88,15.86-.52.56-1.11,1.17-1.67,1.72-.3.24-.6.47-1.03.72-.42.25-.91.44-1.33.36-1.75-.19-.62-2.99.06-4.26.8-1.5,1.81-2.94,2.66-4.51.6-.93,1.12-1.88,1.27-2.68.35-1.83-.58-3.89-2.36-3.91-1.78-.02-4.05,1.35-5.8,3.22-1.21,1.27-2.5,2.86-3.56,3.02-.82.12-1.03-.48-1.39-1.03-.06-.13-.06-.33-.18-.44-.79-1.77-2-2.01-3.38-1.46-1.44.58-3.2,2.31-4.53,3.8-1.03,1.15-2.73,3.69-3.78,5.28-.07.07-.14.15-.21.25,0,.03,0,.05,0,.08,0,.01-.02.03-.03.04,0,0-.01.02-.03.03,0,.07-.06.07-.06.07-.79,1.09-1.81,2.41-2.9,2.94-.36.24-.66-.19-.48-.54,1.39-2.83,2.29-5.83,2.48-8.6.24-3.42-1.03-5.66-3.62-5.35-.48.06-1.15.34-1.93.76h-.06c-.91.51-1.75,1.41-2.42,2.36-.12.15-.3.24-.48.12-.24-.17-.54-.2-1.03.12-2.9,2.26-5.75,6.28-6.78,10.36-1.08,1.16-2,1.56-2.64,1.4-.24-.17-.53-.42-.6-.79-.05-.25.06-.94.18-1.22,1.33-2.48,2.86-5.61,2.48-7.94-.28-1.75-1.33-2.23-2.35-1.91h-.06c-3.68,1.24-5.74,7.21-4.95,11.23,0,.47,0,1.06-.24,1.56-.12.35-.3.64-.54.86-.73.75-1.45,1.44-2.11,2.05-.02.03-.04.04-.06.07-.3.17-.54.4-.85.63-.72.49-1.51.91-2.29,1.21-1.87.62-2.42-.65-2.05-2.55.24-1.22.79-2.42,1.33-3.55.3-.44.54-.93.72-1.35.6-1.2,1.58-3.56,1.45-5.42-.09-1.22-.65-2.54-2.42-2.57-2.35-.04-4.89,3.21-6.94,6.15-1.61,2.29-3.01,4.49-3.49,5.22-.61.85-1.24,1.67-1.94,2.41-1.09,1.15-2.91,3-4.71,3.69-2.77,1.05-6.7,1.2-7.91-1.12-.18-.58-.12-1.25.54-1.66q.06,0,.12-.01c.91-.31,1.93-.63,3.14-1.04,3.44-1.01,7.49-3.1,9.12-6.07,1.53-2.78.42-5.43-2.6-5.74-1.21-.12-3.2.32-4.23.77-3.32,1.66-6.2,4.18-8.27,7.24-2.35,3.46-3.63,7.89-.79,11.13,3.01,3.43,10.81.83,14.55-2.67,1.51-1.51,2.9-3,3.26-3.51.79-.96,1.45-1.9,1.99-2.7.07-.11.12-.22.16-.33.54-.76,1.11-1.58,1.65-2.41,1.87-2.55,4.05-5.34,5.01-4.25.42.55-.24,1.82-.6,2.4-.6,1.2-1.33,2.42-1.99,3.63-1.39,2.43-3.08,6.15-1.03,8.3,1.21,1.38,3.62.76,5.44-.18,3.38-1.8,6.28-4.8,6.88-5.41.3-.3.79-.55,1.15-.67.3-.1.66-.15,1.03-.12,1.58.45,3.49-.1,5.09-1.23.05,1.09.26,2.14.7,3.13,1.89,4.27,6.04,2.8,9.12-.16.54-.53.97-.98,1.45-1.57.06-.21.3-.24.42-.25,1.45.19,4.17-1.01,6.95-4.54.08-.07.16-.14.24-.24.79-1.03,1.69-2.36,2.66-3.77,1.05-1.52,2.73-3.52,4.17-3.22,2.34.49.06,4.25-.72,5.47-1.15,1.93-4.03,5.57-3.99,6.79.06,1.66.98,2.24,2.05,1.88,1.4-.47,2.48-1.82,3.2-3.24.24-.56,3.81-6.3,5.37-8.55.85-1.16,1.89-2.61,3.14-3.43,1.32-.87,2.96-.62,2.66.95-.12.61-.48,1.12-.66,1.61-.42.78-.96,1.8-1.45,2.77-.57,1.13-1.09,2.19-1.33,3.22-.6,2-.36,4.3,1.45,4.94,0,0,.06,0,.12.05.79.24,1.87.11,3.02-.56,0,.07.24-.16.24-.16,1.5-.84,2.89-2.11,4.16-3.53ZM54.41,47.25c1.39-2.09,3.56-3.95,5.31-4.69v-.07c1.21-.34,2.17-.33,2.48.5.72,1.71-1.06,3.17-2.66,4.04-1.35.74-3.08,1.17-4.41,1.52-.3.04-.68-.06-.79-.3-.13-.3-.12-.65.06-1ZM89.5,41.13c-.15.1-.18.09-.24-.04-.06-.06-.06-.13-.06-.19,0-.27.06-.54.12-.75.12-.68,1.21-3.8,1.39-2.63.12.78-.18,1.88-.6,2.93-.24.3-.43.56-.6.67ZM101.82,48.43c-.91.64-1.88.96-2.9.94-2.89-.04-2.54-3.62-1.75-5.77.48-1.32,1.27-2.68,2.17-3.78.24-.43.66-.15.66.25-.12,1.41-.03,2.88.3,4.15.32,1.2.85,2.49,1.57,3.47.12.25.12.58-.06.74ZM105.08,44.39c-.36.44-.66.21-.73-.05-.42-.88-.46-2.16-.48-3.2-.03-1.23.03-2.72.42-3.97.53-1.7,2.62-4.02,3.32-2.19.8,2.08-1.03,7.43-2.54,9.41Z"/>
      <path class="cls-1" d="M240.29,24.18c-.78,1.15-1.6,2.25-2.53,3.22-1.08,1.15-2.9,3-4.7,3.68-2.76,1.05-6.68,1.2-7.88-1.12-.18-.58-.12-1.25.54-1.66q.06,0,.12-.01c.9-.31,1.93-.63,3.13-1.04,3.43-1.01,7.46-3.09,9.09-6.07,1.52-2.78.42-5.43-2.59-5.73-1.2-.12-3.19.31-4.21.77-3.31,1.66-6.18,4.17-8.25,7.23-.88,1.3-1.6,2.73-2.02,4.18-.54.78-1.1,1.55-1.65,2.17-.73.83-1.63,1.72-2.59,2.43-.48.46-1.19.9-1.93,1.16-2.13.76-2.76-1.66-1.75-3.71,1.09-2.18,2.89-4.34,4.39-6.1,1.2-1.41,2.71-3.25,2.17-4.78,0-.27-.06-.52-.24-.77-.42-.75-1.59-1.27-2.29-.39-.67.86-1.38,2.09-2.47,3.22-.24.23-.57.38-.9.44-.4.08-.66-.19-.84-.5-.48-1.54-1.72-2.49-3.67-2.35-3.84.26-8.28,3.91-10.9,7.08-.97,1.17-2.12,2.75-3.05,4.46,0,0-.01.01-.02.02-.71,1.08-1.5,2.11-2.29,3.13-.66.61-1.2,1.21-1.81,1.81-.3.24-.61.58-1.02.79-.38.2-.84.37-1.32.29-1.69-.2-.57-2.93.06-4.12.8-1.51,1.81-2.94,2.65-4.5.54-.86,1.07-1.74,1.2-2.6.27-1.81-.76-3.61-2.35-3.84-1.91-.27-4.64,1.62-6.26,3.01-.66.61-1.2,1.21-1.75,1.8-.12.08-.24.16-.36.24-.36.18-.36.11-.42-.22,0-.13,0-.26.06-.41.6-1.2,1.2-2.33,1.75-3.46.24-.43.42-.78.66-1.21,1.75-2.93,3.55-5.8,5.3-8.74.78-1.29,8.25-10.28,4.09-10.98-.72-.11-1.38.23-1.99.7-.24.03-.54.26-.72.55-.06.14-.12.21-.18.29-.3.37-.54.8-.78,1.09-.9,1.3-1.69,2.73-2.47,4.21-5.54,8.83-11.86,17.22-17.7,25.83-.84,1.23.72,2.77,1.57,1.47,2.05-3.03,4.21-6.08,6.32-9.06q.06-.07.12-.15c.24-.1.3-.17.3-.04.06.13.06.26,0,.4-.84,1.7-1.68,3.33-2.53,5.02-.92,1.84-2.05,3.76-2.83,5.65-.3.77-.66,1.41-1.02,2.05-.38.65-.9,1.44-.84,2.23.07.98.96,1.43,1.75,1.45.28,0,.54,0,.84-.03,1.44-.51,2.41-1.88,3.19-3.24.24-.63,3.73-6.22,5.24-8.4.9-1.17,1.84-2.6,3.01-3.35,1.32-.85,2.95-.69,2.65.95-.12.55-.48,1.05-.66,1.47-.36.77-.9,1.77-1.38,2.76v.07c-.6,1.07-1.14,2.06-1.38,3.09-.54,1.92-.3,4.22,1.45,4.87q.06,0,.12.05h.06c.78.23,1.81.11,2.95-.49,0,0,.24-.23.24-.16,1.78-1.02,3.42-2.67,4.84-4.45.03.63.15,1.25.4,1.83,1.72,4.03,6.14,1.32,8.79-.72.84-.7,1.75-1.4,2.77-2.26.36-.24.8-.51,1.14-.53.63-.04.96.48,1.2.99.54,1.93,2.23,3.26,4.63,2.83,3.1-.55,5.95-3.44,8.21-6.4.21,1.06.68,2.07,1.48,2.98,3,3.43,10.77.84,14.5-2.66,1.51-1.51,2.89-3,3.25-3.51.78-.96,1.45-1.9,1.99-2.69.84-1.3-.79-2.83-1.69-1.53ZM226.03,24.22c1.38-2.09,3.55-3.95,5.3-4.68v-.07c1.2-.34,2.17-.32,2.47.5.72,1.71-1.06,3.16-2.65,4.04-1.34.74-3.07,1.16-4.39,1.52-.3.04-.68-.06-.78-.3-.13-.3-.12-.65.06-1ZM206.83,29.37c-.84,1.16-1.77,2.2-2.89,3-.96.69-2.5,1.67-3.55,1.82-2.53.37-3.14-2.04-2.23-4.12,1.29-2.93,4.22-5.51,6.8-6.86,1.67-.87,3.19-1.33,4.51-.07,1.11,1.06-2.17,5.71-2.65,6.23Z"/>
    </g>
  </g>
</svg>