<?xml version="1.0" encoding="UTF-8"?>
<svg id="Layer_2" data-name="Layer 2" xmlns="http://www.w3.org/2000/svg" viewBox="0 0 242.21 65.59">
  <defs>
    <style>
      .cls-1 {
        fill: #3d1900;
      }
    </style>
  </defs>
  <g id="Layer_1-2" data-name="Layer 1">
    <g>
      <path class="cls-1" d="M172.92,52.85c-.27-.16-.3-.16-.54.06-.03.03-.07.06-.11.08-.47.34-.99.37-1.54.26-.49-.1-.82-.36-.97-.84-.1-.31-.08-.62,0-.94.27-1.11,1.42-1.43,2.27-.87.15.1.3.18.46.24.08.03.16.05.23,0,.42-.26.56-.45.17-.82-.46-.43-1.01-.61-1.7-.61-.75,0-1.39.24-1.88.75-.26.28-.45.61-.57.98-.25.7-.2,1.4.19,2.03.38.61.99.89,1.68,1.01.44.08.88.05,1.32,0,.51-.07.96-.28,1.33-.65.16-.16.14-.32-.03-.46-.1-.08-.2-.16-.31-.22Z"/>
      <path class="cls-1" d="M178.99,53.88c-.36-.23-.61-.56-.86-.89-.09-.12-.08-.24-.02-.36.03-.05.06-.1.1-.14.13-.15.26-.28.38-.44.24-.32.25-.7.23-1.09-.03-.52-.29-.88-.73-1.13-.33-.19-.69-.28-1.07-.3-.62-.03-1.25-.02-1.87-.02-.27,0-.53,0-.8.02-.24.01-.29.08-.29.31v1.79c-.01.81,0,1.41.02,2.02,0,.12,0,.24.02.36.04.18.05.2.24.21.18.01.37.02.56.02.17,0,.23-.04.24-.22.01-.27,0-.54.01-.81,0-.06,0-.12.02-.18.04-.17.13-.24.3-.25.15,0,.31,0,.46,0,.23,0,.43.07.6.22.12.11.25.22.36.34.23.25.46.49.72.7.12.1.26.15.42.14.28,0,.57,0,.85,0,.04,0,.09,0,.13-.01.1-.03.13-.13.07-.22-.02-.03-.05-.05-.08-.07ZM177.84,51.38c-.06.19-.22.29-.4.35-.22.07-.44.07-.67.08-.18,0-.35,0-.52,0,0,0-.55.01-.82.01-.18,0-.25-.07-.25-.24,0-.31,0-.61,0-.92,0-.15.07-.21.25-.23.26-.03.53-.04.8-.03.35.01.7.03,1.05.08.43.06.71.49.58.9Z"/>
      <path class="cls-1" d="M183.73,53.27c-.08,0-.17,0-.25,0-.77.05-1.55.02-2.32.03-.2,0-.29-.08-.32-.27-.02-.19-.03-.38,0-.57.03-.13.08-.21.23-.21.1,0,.2-.02.3-.02.42,0,.84,0,1.25,0,.27,0,.33-.05.33-.32,0-.11,0-.21,0-.32,0-.24-.09-.31-.32-.29-.52.05-1.05,0-1.57.02-.14,0-.23-.07-.24-.21-.01-.15-.02-.3,0-.45.02-.2.09-.25.28-.25.09,0,.18,0,.27,0,.74,0,1.48-.02,2.22-.03.19,0,.27-.07.29-.26.01-.12.01-.25,0-.37-.01-.17-.09-.24-.26-.24-.6,0-1.19,0-1.79,0h0c-.57,0-1.14,0-1.71,0-.32,0-.36.04-.35.36,0,.69.04,1.38.02,2.07-.03.68.03,1.36.02,2.04,0,.15.08.21.22.22.11,0,.22,0,.33,0,1.1.06,2.2,0,3.3.02.15,0,.25-.07.25-.23,0-.18.01-.37,0-.55,0-.12-.08-.18-.2-.18Z"/>
      <path class="cls-1" d="M187.77,50.31c-.07-.16-.16-.31-.22-.47-.13-.31-.18-.35-.52-.35-.07,0-.15,0-.22,0-.2,0-.34.09-.41.27-.09.24-.19.49-.29.73-.49,1.17-.97,2.34-1.46,3.51-.07.16-.06.17.12.21.15.03.3.02.45.02.27,0,.38-.09.47-.35.03-.09.06-.18.09-.27.08-.21.21-.31.44-.32.53,0,1.06,0,1.59-.01.12,0,.21.05.27.16.07.14.15.27.2.42.11.27.2.33.49.33h.32c.39,0,.45-.09.28-.43-.56-1.14-1.07-2.31-1.6-3.47ZM187.45,52.46c-.07,0-.13,0-.2,0-.06,0-.12,0-.18,0-.22.01-.43-.02-.65-.03-.15,0-.18-.06-.11-.19.21-.42.34-.87.52-1.3.03-.06.03-.14.11-.15.07,0,.09.08.11.13.23.42.38.87.56,1.32.06.15.02.2-.15.22Z"/>
      <path class="cls-1" d="M194.13,49.6c-1.05.02-2.1,0-3.14,0-.2,0-.4-.02-.6-.02-.16,0-.25.07-.25.24,0,.14,0,.29.01.43.01.23.06.28.3.28.31,0,.62,0,.94,0,.41,0,.41,0,.42.42,0,.62,0,1.25,0,1.87,0,.35,0,.69,0,1.04,0,.28.07.35.34.36.15,0,.3,0,.45,0,.16,0,.22-.1.24-.23.01-.07.01-.14.01-.22,0-.47-.01-.95-.01-1.42v-1.14c0-.15,0-.29,0-.44.01-.22.06-.26.28-.26.35,0,.69,0,1.04,0,.26,0,.32-.07.33-.33,0-.08,0-.17,0-.25,0-.31-.04-.35-.35-.35Z"/>
      <path class="cls-1" d="M196.02,49.55c-.21,0-.42,0-.64,0-.15,0-.22.08-.22.23,0,.13.01.26.01.38-.03.97,0,1.94,0,2.91,0,.3,0,.59.01.89,0,.14.07.21.2.24.14.03.28.04.42.03.32,0,.38-.06.38-.38,0-.65,0-1.31,0-1.93.02-.6-.02-1.18.02-1.76.01-.15,0-.3-.02-.45,0-.11-.06-.16-.17-.15Z"/>
      <path class="cls-1" d="M201.36,49.6c-.15,0-.29,0-.43,0-.35,0-.4.04-.5.38-.01.04-.02.07-.04.11-.33.84-.58,1.71-.94,2.53-.04.09-.04.23-.16.23-.12,0-.14-.14-.17-.24-.32-.84-.64-1.68-.95-2.53-.18-.48-.22-.53-.72-.48-.14,0-.28-.01-.42,0-.15.02-.18.07-.12.22.13.3.27.58.39.89.41,1.09.86,2.16,1.32,3.23.11.26.16.3.44.29.17,0,.33-.01.5-.01.18,0,.27-.08.33-.24.36-.9.74-1.79,1.11-2.68.19-.47.39-.93.57-1.41.08-.21,0-.3-.22-.3Z"/>
      <path class="cls-1" d="M206.24,53.27c-.08,0-.17,0-.25,0-.77.05-1.55.02-2.32.03-.2,0-.29-.08-.32-.27-.02-.19-.03-.38,0-.57.03-.13.08-.21.23-.21.1,0,.2-.02.3-.02.42,0,.83,0,1.25,0,.27,0,.33-.05.33-.32,0-.11,0-.21,0-.32,0-.24-.09-.31-.32-.29-.52.05-1.05,0-1.57.02-.14,0-.23-.07-.24-.21-.01-.15-.02-.3,0-.45.02-.2.09-.25.28-.25.09,0,.18,0,.27,0,.74,0,1.48-.02,2.22-.03.19,0,.27-.07.29-.26.01-.12.01-.25,0-.37-.01-.17-.09-.24-.26-.24-.6,0-1.19,0-1.79,0h0c-.57,0-1.14,0-1.71,0-.32,0-.36.04-.35.36,0,.69.04,1.38.02,2.07-.03.68.03,1.36.02,2.04,0,.15.08.21.22.22.11,0,.22,0,.33,0,1.1.06,2.2,0,3.3.02.15,0,.25-.07.25-.23,0-.18.01-.37,0-.55,0-.12-.08-.18-.2-.18Z"/>
      <path class="cls-1" d="M213.3,51.78c-.29-.16-.61-.24-.92-.35-.4-.14-.83-.21-1.23-.38-.11-.05-.22-.11-.23-.26,0-.16.08-.25.2-.32.16-.09.34-.15.53-.15.46,0,.91.07,1.3.35.13.09.28.15.42.04.12-.09.23-.21.3-.35.05-.1.04-.19-.04-.27-.14-.14-.29-.26-.46-.35-.31-.15-.64-.22-.98-.26-.61-.07-1.19-.02-1.72.32-.79.51-.79,1.41-.03,1.95.43.31.92.42,1.43.52.3.06.59.14.82.34.18.16.17.38-.01.53-.11.09-.24.14-.38.17-.58.13-1.07-.07-1.53-.41-.11-.08-.21-.17-.36-.09-.18.1-.33.24-.45.39-.1.12-.1.24.02.36.1.1.21.18.33.26.57.34,1.2.46,1.86.43.09,0,.18,0,.27,0,.44-.04.85-.18,1.16-.52.53-.6.49-1.5-.3-1.93Z"/>
      <path class="cls-1" d="M218.62,49.6c-1.05.02-2.1,0-3.14,0-.2,0-.4-.02-.6-.02-.16,0-.25.07-.25.24,0,.14,0,.29.01.43.01.23.06.28.3.28.31,0,.62,0,.94,0,.41,0,.41,0,.42.42,0,.62,0,1.25,0,1.87,0,.35,0,.69,0,1.04,0,.28.07.35.34.36.15,0,.3,0,.45,0,.16,0,.22-.1.24-.23.01-.07.01-.14.01-.22,0-.47-.01-.95-.01-1.42v-1.14c0-.15,0-.29,0-.44.01-.22.06-.26.28-.26.35,0,.69,0,1.04,0,.26,0,.32-.07.33-.33,0-.08,0-.17,0-.25,0-.31-.04-.35-.35-.35Z"/>
      <path class="cls-1" d="M223.88,49.48c-.18,0-.37,0-.55,0-.21,0-.27.05-.28.26,0,.54,0,1.07.02,1.61.01.34.01.68-.03,1.02-.05.4-.25.68-.64.81-.24.08-.47.1-.72.07-.58-.08-.93-.35-.97-1.03-.04-.54,0-1.08,0-1.62,0-.27,0-.55,0-.82,0-.25-.05-.29-.3-.29-.11,0-.22,0-.33,0-.36-.02-.42.04-.42.39,0,.4,0,.79.01,1.19,0,.49-.01.98,0,1.47.02.65.36,1.06.88,1.36.6.35,1.25.4,1.93.29.76-.13,1.66-.74,1.66-1.98,0-.79,0-1.57,0-2.36,0-.06,0-.12-.02-.18-.02-.12-.09-.18-.22-.18Z"/>
      <path class="cls-1" d="M227.53,49.62c-.83-.16-1.67-.08-2.5-.11-.16,0-.23.09-.23.24,0,.24.03.49.02.73-.04.61,0,1.22.02,1.82v.38c0,.42,0,.85,0,1.27,0,.15.06.24.23.25.77.02,1.55.07,2.32-.04.48-.07.94-.22,1.33-.49.62-.43.77-1.09.8-1.79.02-.5-.11-.96-.41-1.38-.39-.54-.94-.78-1.57-.9ZM228.28,52.65c-.21.38-.56.55-.96.62-.29.05-.58.09-.88.08-.12,0-.25,0-.37,0-.12,0-.17-.06-.18-.19-.04-.84-.02-1.68-.03-2.52,0-.24.03-.27.27-.26.41,0,.82.05,1.22.16.95.25,1.39,1.27.92,2.13Z"/>
      <path class="cls-1" d="M231.05,49.55c-.21,0-.42,0-.64,0-.15,0-.22.08-.22.23,0,.13.01.26.01.38-.03.97,0,1.94,0,2.91,0,.3,0,.59.01.89,0,.14.07.21.2.24.14.03.28.04.42.03.32,0,.38-.06.38-.38,0-.65,0-1.31,0-1.93.02-.6-.02-1.18.02-1.76.01-.15,0-.3-.02-.45,0-.11-.06-.16-.17-.15Z"/>
      <path class="cls-1" d="M236.1,49.81c-.48-.3-1.03-.43-1.61-.39-1,.07-1.79.46-2.27,1.38-.25.47-.35.98-.26,1.5.13.76.62,1.28,1.29,1.62.63.32,1.31.38,2,.24,1.17-.23,2.03-1.19,2.01-2.4-.01-.87-.45-1.52-1.16-1.96ZM234.73,53.31c-.91.04-1.63-.5-1.67-1.23-.06-1.07.61-1.67,1.53-1.76.84-.08,1.5.68,1.5,1.54-.02.74-.44,1.41-1.36,1.45Z"/>
      <path class="cls-1" d="M42.34,4.57c-9.71.5-21.62,10.29-23.43,21.54-.06.34-.08.69-.12.94-.11.74-.14,1.77-.12,2.54.03,1.03.79,1.5,1.57,1.34.36.09.77.14,1.33-.03.81-.24,1.47-1.18,1.75-2.14.19-.67-.01-1.47,0-2.19.03-2.1.18-4.01,1.21-6.06,1.81-3.81,5.52-7.57,9.3-9.55,5.35-2.8,13.83-3.98,16.91.31,4.11,7.88.37,18.77-3.62,26.89-3.19,6.49-7.55,12.2-12.86,16.36-2.96,1.75-6.26,2.97-9.48,3.59-2.33.45-4.53.41-6.82.22-.12-.05-.24-.1-.36-.16-2.05-.82-2.84-1.99-1.93-4.55v-.13c.97-1.38,1.75-2.8,2.66-4.1,4.23-6.62,8.27-13.42,12.38-20.16,2.05-3.3,4.05-6.53,6.52-9.42,1.45-1.7,3.02-2.75,4.71-4.22.6-.47,1.3-.83,1.63-1.79.38-1.08-.18-2.11-1.03-2.54-.24-.17-.42-.28-.72-.31-.3-.23-.73-.31-1.21-.05-3.14,1.37-5.56,5.18-7.55,8.08-3.62,5.22-6.9,10.8-10.21,16.31-2.78,4.64-5.62,9.44-8.58,14.05-1.63,2.26-3.26,4.51-5.13,6.4-1.39,1.3-2.78,1.93-4.47,2.59-.42.18-.91.37-1.27.62-1.75.94-3.25,2.19-3.38,4.12-.11,1.74.88,2.36,1.93,2.49.57.07,1.33.04,2.17-.19,1.2-.34,2.36-1.08,3.56-1.56,2.11-.84,4.14-1,6.04-.72.74.11,1.64.35,2.41.37,2.32.08,4.62-.06,6.94-.43,6.59-1.05,13.11-4.29,18.42-9.31,7.49-7.14,13.14-18.15,14.98-28.38,2.02-11.25-3.27-21.34-14.13-20.77Z"/>
      <path class="cls-1" d="M240.29,24.18c-.78,1.15-1.6,2.25-2.53,3.22-1.08,1.15-2.9,3-4.7,3.68-2.76,1.05-6.68,1.2-7.88-1.12-.18-.58-.12-1.25.54-1.66q.06,0,.12-.01c.9-.31,1.93-.63,3.13-1.04,3.43-1.01,7.46-3.09,9.09-6.07,1.52-2.78.42-5.43-2.59-5.73-1.2-.12-3.19.31-4.21.77-3.31,1.66-6.18,4.17-8.25,7.23-.88,1.3-1.6,2.73-2.02,4.18-.54.78-1.1,1.55-1.65,2.17-.73.83-1.63,1.72-2.59,2.43-.48.46-1.19.9-1.93,1.16-2.13.76-2.76-1.66-1.75-3.71,1.09-2.18,2.89-4.34,4.39-6.1,1.2-1.41,2.71-3.25,2.17-4.78,0-.27-.06-.52-.24-.77-.42-.75-1.59-1.27-2.29-.39-.67.86-1.38,2.09-2.47,3.22-.24.23-.57.38-.9.44-.4.08-.66-.19-.84-.5-.48-1.54-1.72-2.49-3.67-2.35-3.84.26-8.28,3.91-10.9,7.08-.97,1.17-2.12,2.75-3.05,4.46,0,0-.01.01-.02.02-.71,1.08-1.5,2.11-2.29,3.13-.66.61-1.2,1.21-1.81,1.81-.3.24-.61.58-1.02.79-.38.2-.84.37-1.32.29-1.69-.2-.57-2.93.06-4.12.8-1.51,1.81-2.94,2.65-4.5.54-.86,1.07-1.74,1.2-2.6.27-1.81-.76-3.61-2.35-3.84-1.91-.27-4.64,1.62-6.26,3.01-.66.61-1.2,1.21-1.75,1.8-.12.08-.24.16-.36.24-.36.18-.36.11-.42-.22,0-.13,0-.26.06-.41.6-1.2,1.2-2.33,1.75-3.46.24-.43.42-.78.66-1.21,1.75-2.93,3.55-5.8,5.3-8.74.78-1.29,8.25-10.28,4.09-10.98-.72-.11-1.38.23-1.99.7-.24.03-.54.26-.72.55-.06.14-.12.21-.18.29-.3.37-.54.8-.78,1.09-.9,1.3-1.69,2.73-2.47,4.21-5.54,8.83-11.86,17.22-17.7,25.83-.84,1.23.72,2.77,1.57,1.47,2.05-3.03,4.21-6.08,6.32-9.06q.06-.07.12-.15c.24-.1.3-.17.3-.04.06.13.06.26,0,.4-.84,1.7-1.68,3.33-2.53,5.02-.92,1.84-2.05,3.76-2.83,5.65-.3.77-.66,1.41-1.02,2.05-.38.65-.9,1.44-.84,2.23.07.98.96,1.43,1.75,1.45.28,0,.54,0,.84-.03,1.44-.51,2.41-1.88,3.19-3.24.24-.63,3.73-6.22,5.24-8.4.9-1.17,1.84-2.6,3.01-3.35,1.32-.85,2.95-.69,2.65.95-.12.55-.48,1.05-.66,1.47-.36.77-.9,1.77-1.38,2.76v.07c-.6,1.07-1.14,2.06-1.38,3.09-.54,1.92-.3,4.22,1.45,4.87q.06,0,.12.05h.06c.78.23,1.81.11,2.95-.49,0,0,.24-.23.24-.16,1.78-1.02,3.42-2.67,4.84-4.44.03.63.15,1.25.4,1.83,1.72,4.03,6.14,1.32,8.79-.72.84-.7,1.75-1.4,2.77-2.26.36-.24.8-.51,1.14-.54.63-.04.96.48,1.2.99.54,1.93,2.23,3.26,4.63,2.83,3.1-.55,5.95-3.44,8.21-6.4.21,1.06.68,2.07,1.48,2.98,3,3.43,10.77.84,14.5-2.66,1.51-1.51,2.89-3,3.25-3.51.78-.96,1.45-1.9,1.99-2.69.84-1.3-.79-2.83-1.68-1.53ZM226.03,24.22c1.38-2.09,3.55-3.95,5.3-4.68v-.07c1.2-.34,2.17-.32,2.47.5.72,1.71-1.06,3.16-2.65,4.04-1.34.74-3.07,1.16-4.39,1.52-.3.04-.68-.06-.78-.3-.13-.3-.12-.65.06-1ZM206.83,29.37c-.84,1.16-1.77,2.2-2.89,3-.96.69-2.5,1.67-3.55,1.82-2.53.37-3.14-2.04-2.23-4.12,1.29-2.93,4.22-5.51,6.8-6.86,1.67-.87,3.19-1.33,4.51-.07,1.11,1.06-2.17,5.71-2.65,6.23Z"/>
      <path class="cls-1" d="M168.68,32.09c-.69-6.2-2.77-12.56-1.57-19.01.66-2.54,1.75-4.93,3.61-6.81,1.5-1.51,3.14-2.49,5.12-2.67,2.4-.21,5.48,1.6,5.24,4.42-.12.55-.36,1.17-.6,1.67-.12.21-.24.43-.36.71-.12.08-.12.28-.18.35-.48.72-1.2,1.41-1.93,2.02-.54.46-.78,1.42-.18,1.95,1.02.81,2.53,1.03,3.73-.11.48-.39.96-1.05,1.26-1.61.54-.86.84-1.76,1.14-2.59.06-.14.06-.34.12-.48.12-.21.12-.41.06-.6.42-2.38-.06-4.51-1.2-6.17-.06,0-.06-.06-.12-.12-.06-.26-.24-.37-.36-.42-1.93-2.16-5.08-2.93-8.07-2.49-2.26.33-4.7,1.76-6.5,3.9-4.27,4.1-5.62,10.81-5.72,16.76-.09,5.46,1.04,10.85,1.14,16.47.14,7.21-3.31,14.81-9.51,17.28-2.23.66-4.51.87-6.56.39-4.58-1.18-6.62-5.52-7.28-10.29v-.33c-.02-1.24.1-2.45.31-3.63,0,0,0,0,0,0,.23-.35.28-.72.22-1.04.48-2.03,1.27-3.95,2.3-5.75.78-1.02,1.62-1.85,2.59-2.57,1.56-1.05,3.02-.92,4.58-1.54,1.71-.69,2.23-2.68,1.2-4.2-1.41-2.08-3.91-.93-6.14,1.07-4.94,3.45-8.33,9.68-8.88,15.86-.52.56-1.11,1.17-1.67,1.72-.3.24-.6.47-1.03.72s-.91.44-1.33.36c-1.75-.19-.62-2.99.06-4.26.8-1.5,1.81-2.94,2.66-4.51.6-.93,1.12-1.88,1.27-2.68.35-1.83-.58-3.89-2.36-3.91-1.78-.02-4.05,1.35-5.8,3.22-1.21,1.27-2.5,2.86-3.56,3.02-.82.12-1.03-.48-1.39-1.03-.06-.13-.06-.33-.18-.44-.79-1.77-2-2.01-3.38-1.46-1.44.58-3.2,2.31-4.53,3.8-1.03,1.15-2.73,3.69-3.78,5.28-.07.07-.14.15-.21.25,0,.03,0,.05,0,.08,0,.01-.02.03-.03.04,0,0-.01.02-.03.03,0,.07-.06.07-.06.07-.79,1.09-1.81,2.41-2.9,2.94-.36.24-.66-.19-.48-.54,1.39-2.83,2.29-5.83,2.48-8.6.24-3.42-1.03-5.66-3.62-5.35-.48.06-1.15.34-1.93.76h-.06c-.91.51-1.75,1.41-2.42,2.36-.12.15-.3.24-.48.12-.24-.17-.54-.2-1.03.12-2.9,2.26-5.75,6.28-6.78,10.36-1.08,1.16-2,1.56-2.64,1.4-.24-.17-.53-.42-.6-.79-.05-.25.06-.94.18-1.22,1.33-2.48,2.86-5.61,2.48-7.94-.28-1.75-1.33-2.23-2.35-1.91h-.06c-3.68,1.24-5.74,7.21-4.95,11.23,0,.47,0,1.06-.24,1.56-.12.35-.3.64-.54.86-.73.75-1.45,1.44-2.11,2.05-.02.03-.04.04-.06.07-.3.17-.54.4-.85.63-.72.49-1.51.91-2.29,1.21-1.87.62-2.42-.65-2.05-2.55.24-1.22.79-2.42,1.33-3.55.3-.44.54-.93.72-1.35.6-1.2,1.58-3.56,1.45-5.42-.09-1.22-.65-2.54-2.42-2.57-2.35-.04-4.89,3.21-6.94,6.15-1.61,2.29-3.01,4.49-3.49,5.22-.61.85-1.24,1.67-1.94,2.41-1.09,1.15-2.91,3-4.71,3.69-2.77,1.05-6.7,1.2-7.91-1.12-.18-.58-.12-1.25.54-1.66h.12c.91-.32,1.93-.64,3.14-1.05,3.44-1.01,7.49-3.1,9.12-6.07,1.53-2.78.42-5.43-2.6-5.74-1.21-.12-3.2.32-4.23.77-3.32,1.66-6.2,4.18-8.27,7.24-2.35,3.46-3.63,7.89-.79,11.13,3.01,3.43,10.81.83,14.55-2.67,1.51-1.51,2.9-3,3.26-3.51.79-.96,1.45-1.9,1.99-2.7.07-.11.12-.22.16-.33.54-.76,1.11-1.58,1.65-2.41,1.87-2.55,4.05-5.34,5.01-4.25.42.55-.24,1.82-.6,2.4-.6,1.2-1.33,2.42-1.99,3.63-1.39,2.43-3.08,6.15-1.03,8.3,1.21,1.38,3.62.76,5.44-.18,3.38-1.8,6.28-4.8,6.88-5.41.3-.3.79-.55,1.15-.67.3-.1.66-.15,1.03-.12,1.58.45,3.49-.1,5.09-1.23.05,1.09.26,2.14.7,3.13,1.89,4.27,6.04,2.8,9.12-.16.54-.53.97-.98,1.45-1.57.06-.21.3-.24.42-.25,1.45.19,4.17-1.01,6.95-4.54.08-.07.16-.14.24-.24.79-1.03,1.69-2.36,2.66-3.77,1.05-1.52,2.73-3.52,4.17-3.22,2.34.49.06,4.25-.72,5.47-1.15,1.93-4.03,5.57-3.99,6.79.06,1.66.98,2.24,2.05,1.88,1.4-.47,2.48-1.82,3.2-3.24.24-.56,3.81-6.3,5.37-8.55.85-1.16,1.89-2.61,3.14-3.43,1.32-.87,2.96-.62,2.66.95-.12.61-.48,1.12-.66,1.61-.42.78-.96,1.8-1.45,2.77-.57,1.13-1.09,2.19-1.33,3.22-.6,2-.36,4.3,1.45,4.94,0,0,.06,0,.12.05.79.24,1.87.11,3.02-.56,0,.07.24-.16.24-.16,1.5-.84,2.89-2.11,4.16-3.53.02.24.04.47.07.71,1.38,9.99,10.26,14.93,19.2,11.32,9.98-4.02,14.4-15.51,13.24-25.96ZM54.41,47.25c1.39-2.09,3.56-3.95,5.31-4.69v-.07c1.21-.34,2.17-.33,2.48.5.72,1.71-1.06,3.17-2.66,4.04-1.35.74-3.08,1.17-4.41,1.52-.3.04-.68-.06-.79-.3-.13-.3-.12-.65.06-1ZM89.5,41.13c-.15.1-.18.09-.24-.04-.06-.06-.06-.13-.06-.19,0-.27.06-.54.12-.75.12-.68,1.21-3.8,1.39-2.63.12.78-.18,1.88-.6,2.93-.24.3-.43.56-.6.67ZM101.82,48.43c-.91.64-1.88.96-2.9.94-2.89-.04-2.54-3.62-1.75-5.77.48-1.32,1.27-2.68,2.17-3.78.24-.43.66-.15.66.25-.12,1.41-.03,2.88.3,4.15.32,1.2.85,2.49,1.57,3.47.12.25.12.58-.06.74ZM105.08,44.39c-.36.44-.66.21-.73-.05-.42-.88-.46-2.16-.48-3.2-.03-1.23.03-2.72.42-3.97.53-1.7,2.62-4.02,3.32-2.19.8,2.08-1.03,7.43-2.54,9.41Z"/>
    </g>
  </g>
</svg>