<?xml version="1.0" encoding="UTF-8"?>
<svg id="Layer_2" data-name="Layer 2" xmlns="http://www.w3.org/2000/svg" viewBox="0 0 86.09 101.82">
  <defs>
    <style>
      .cls-1 {
        fill: #3d1900;
      }
    </style>
  </defs>
  <g id="Layer_1-2" data-name="Layer 1">
    <g>
      <path class="cls-1" d="M55.15,9.46c-1.33-1.93-3.04-3.6-5.36-4.25-1.67-.48-3.45-.39-5.13-.03-.78.11-1.52.35-2.22.69,1.41-1.28,3.22-2.04,5.02-2.61.8-.26,1.63-.41,2.45-.59.68-.18,1.38-.28,2.07-.34.53-.05,1.07,0,1.6.04.35-.01.71-.01,1.06.02.2.02.34-.13.38-.32.13-.54-.53-.73-.87-1-1.02-.71-3.76-1.16-5.01-1.05-1.7.16-3.4.54-4.92,1.32-.85.49-1.69,1.04-2.39,1.73-.59.66-1.15,1.25-1.51,2.07-.35-.73-.94-1.34-1.54-1.88-.48-.47-1.07-.78-1.66-1.11-1.18-.74-2.45-1.38-3.85-1.56-.73-.16-1.46-.07-2.19.05-.24,0-.48.04-.72.07-.31.06-.44.44-.41.72.08.76.84.51,1.37.55.64.1,1.28.25,1.91.4,1.57.45,2.91,1.43,3.97,2.65.33.31.66.62.97.95-.37.03-.74.08-1.11.17-1.32.3-2.64.68-3.81,1.37-1.41.77-2.45,2.06-3.16,3.47-.22.44-.43.89-.57,1.37-.05.13-.11.33.04.43.08.05.17,0,.21-.08.18-.38.38-.76.59-1.13.62-1.02,1.34-2.02,2.31-2.74.58-.38,1.23-.6,1.89-.8.76-.17,1.53-.35,2.32-.34.34,0,.67.05,1,.09-1.87,1.45-3.14,3.58-3.95,5.78-.8,2.33-1.11,4.93-.41,7.32.24.57.79.21.72-.28-.08-.62-.02-1.29.08-1.91.13-.76.34-1.65.66-2.43.32-.72.7-1.4,1.08-2.09.95-1.55,2.07-3,3.36-4.29.4-.39.87-.72,1.2-1.18.02-.03.05-.06.07-.09.1.13.24.23.4.26-.26,1.33-.32,2.68-.3,4.03,0,3.5.11,6.99.15,10.48.11,4.52.02,9.04.24,13.55.23,7.84.46,16.03.83,23.91.06,3.46.26,6.92.29,10.38-.03,2.57.03,5.15.1,7.72.07,1.48.17,2.95.18,4.43.06,1.44-.02,2.88.02,4.32,0,1.89.05,3.78.19,5.66.06,1.39.09,3.08.08,4.57.02,1.04-.16,2.09.07,3.12.2,1.14,1.25.85,1.33,0,.14-.7.13-1.42.05-2.13-.09-1.47-.15-2.94-.18-4.41-.02-3.04.24-6.07.17-9.11-.05-3.02.18-6.02.25-9.04.13-3.09-.04-6.18-.18-9.27-.06-1.6-.14-3.38-.26-5.18-.08-1.08-.21-2.16-.27-3.25-.18-2.45-.37-4.9-.38-7.36-.04-2.2.07-4.4.04-6.59.07-5.99.09-11.99-.31-17.98-.11-2.57-.24-5.09-.36-7.66-.05-2.33-.08-4.66-.23-6.98-.05-.98-.16-1.97-.41-2.93.09.05.19.11.28.15.33.17.67.31,1,.46.77.38,1.59.68,2.36,1.06.94.49,1.86,1.03,2.79,1.54.7.37,1.28.89,1.84,1.43.36.26.61-.3.44-.58-.38-.72-.87-1.4-1.37-2.04-.73-.94-1.64-1.71-2.64-2.36-.56-.4-1.16-.77-1.79-1.06,1.26-.22,2.56-.21,3.8.16,1.39.43,2.77.96,4.06,1.64.76.33,1.39.86,2.04,1.36.2.14.45-.01.54-.2.24-.48-.19-.9-.43-1.28Z"/>
      <path class="cls-1" d="M85.89,55.26s-.02-.02-.02-.02c-.09-.12-.18-.24-.3-.34-.1-.09-.2-.19-.28-.3-.16-.19-.32-.37-.5-.53-.08-.09-.16-.18-.24-.27-.16-.19-.35-.42-.56-.64-.19-.2-.37-.4-.55-.61-.32-.38-.6-.8-.87-1.21-.08-.13-.14-.26-.21-.38-.1-.19-.23-.37-.35-.55-.08-.13-.25-.36-.4-.59-.07-.11-.12-.22-.21-.32-.16-.19-.35-.33-.59-.42-.37-.13-.78-.16-1.15-.28-.19-.12-.38-.2-.6-.28-.16-.06-.33-.11-.5-.16-.05-.02-.09-.05-.14-.07-.21-.09-.38-.12-.6-.16-.36-.06-.72-.11-1.08-.14-.43-.04-.86-.08-1.29-.11-.37-.03-.73-.06-1.1-.09-.45-.03-.89-.07-1.33-.06-.14,0-.5-.03-.86-.05-.1,0-.21-.01-.31-.02-.29-.46-.58-.9-.91-1.33-.86-1.17-2.05-2.03-3.36-2.63-1.24-.63-2.37-1.47-3.35-2.46-.93-.82-2.55-2.77-3.78-2.79-1,.01-1.53,1.09-1.42,1.99.11,1.34,1.45,2.02,2.57,2.46,1.18.51,2.42.91,3.48,1.64.71.53,1.3,1.18,1.84,1.87-1.06-.39-2.12-.69-2.88-.93-2.23-.63-4.52-1.14-6.83-1.25-.54.04-1.12-.1-1.64.1-.86.28-1.26.65-1.29,1.6,0,.52.21,1.02.64,1.32.41.24.82.5,1.3.53.96.22,1.93.4,2.91.51,1.03.15,2.06.36,3.07.61-.08,0-.16,0-.23,0-.76.19-1.55.41-2.3.7-.51.13-1.03.24-1.55.36-.23.08-.47.14-.71.19-.74-.09-1.48-.27-2.23-.25-.7.02-1.38.2-2.06.34-1.02.32-2.14.76-2.8,1.64-.51.8-.48,2.04.27,2.69.57.53,1.31.25,1.91-.05.53-.24,1.08-.42,1.6-.66.64-.26,1.33-.4,1.96-.69.47-.2.95-.41,1.44-.56.86-.23,1.75-.3,2.63-.36,1.01.2,2.01.45,3.05.48,1.25.12,2.48.43,3.68.8-.53,1.39-1.03,2.74-1.72,4.09-.81,1.39-1.35,2.9-1.89,4.41-.54,1.4-.89,2.86-1.34,4.3-.45,1.4-.88,2.8-1.18,4.24-.58,2.31-.49,4.71-.84,7.06-.18,1-.48,1.97-.62,2.98-.3,3.18-.23,6.38-.26,9.58,0,2.04,0,4.08.09,6.12.1,1.43,0,3.46.88,4.64.4.51,1.11.37,1.43-.13.75-1.15.53-3.14.57-4.51-.04-3-.06-6.01-.03-9.01,0-1.97.02-3.94-.05-5.91-.02-.94-.21-1.85-.26-2.79-.06-1.34.25-2.65.63-3.92.5-1.62.93-3.27,1.41-4.9.34-1.34.66-2.69,1.13-4,.34-1.12.67-2.25,1-3.37.51-1.39.94-2.81,1.25-4.26.41-1.41.95-2.75,1.45-4.12.18.16.37.31.55.49,1.39,1.37,2.53,2.96,3.64,4.55.4.46.76.96,1.23,1.35.35.37.64.78.97,1.17.89,1.42,1.28,2.99,2.01,4.51.13.28.45.44.72.27.68-.49.12-1.36-.03-1.99-.34-1.19-.83-2.32-1.29-3.46-.24-.63-.43-1.44-.67-2.09-.19-.83-.51-1.61-.85-2.39-.39-.74-.85-1.43-1.36-2.1-.05-.07-.11-.14-.16-.21.21.14.42.28.63.42.76.57,1.48,1.2,2.16,1.87.7.71,1.34,1.46,1.95,2.26.1.13.19.26.3.38.1.12.2.24.3.36.2.28.38.57.59.84.03.04.2.27.38.48.14.16.3.29.47.41.01,0,.02.02.04.03.07.08.14.16.2.24.09.12.19.24.32.31.05.02.09.05.14.07.07.07.15.14.23.19.02.04.04.08.05.12,0,.02.02.04.02.06.11.27.2.55.32.82.1.24.32.38.55.38.12,0,.24-.04.34-.13.31-.26.35-.71.24-1.07-.08-.26-.19-.51-.29-.76-.02-.05-.05-.12-.08-.19-.01-.04-.03-.07-.04-.11,0-.15,0-.29-.03-.44.01-.18.02-.37-.03-.55-.04-.15-.09-.3-.14-.46,0-.02-.01-.05-.02-.07v-.04s-.03-.07-.04-.1c0-.02,0-.04,0-.05,0-.06-.02-.13-.03-.19-.06-.31-.17-.6-.3-.89-.08-.16-.15-.33-.24-.49-.15-.26-.3-.51-.46-.76-.16-.25-.31-.52-.48-.77-.3-.44-.65-.87-.99-1.28-.28-.33-.56-.65-.86-.97-.62-.67-1.28-1.3-1.97-1.89-.13-.11-.27-.21-.4-.32.15.01.29.03.44.04.4.03.8.04,1.2.04.15,0,.3-.02.44-.06.03,0,.06-.02.1-.03.2-.03.4-.05.59-.08.2-.04.38-.08.56-.16.19-.03.39-.03.59-.04.18,0,.36-.02.54-.03.17.15.34.31.51.46.15.13.29.26.46.37.13.08.24.18.36.28.34.29.68.6.97.94h0s.01.01.02.02c.17.21.36.43.55.66.19.23.38.44.58.66.04.04.07.09.11.13.06.1.12.2.2.29.09.11.18.21.27.32.18.23.35.45.55.67,0,0,.01.01.02.02.09.12.23.21.38.21.01,0,.03,0,.04,0,.17-.02.31-.14.4-.29.18-.3.17-.75-.08-1Z"/>
      <path class="cls-1" d="M32.19,38.71c-1.35-.93-2.93-1.49-4.51-1.89-1.88-.45-3.99-.76-5.77.18-1.14.57-2.31,1.17-3.55,1.52-1.1.5-2.13,1.16-3.1,1.88-.06.04-.12.09-.18.13-.03-.18-.06-.35-.07-.53-.17-1.32-.12-2.66-.03-3.98.07-.6-.1-1.19-.08-1.79.12-1.6.68-3.11,1.18-4.63.27-.53.52-1.07.82-1.59.43-.62-.21-1.74-.86-.98-.17.24-.34.47-.51.71-.52.86-1.05,1.71-1.5,2.62-.5.97-.83,2.02-1.3,3-.09.29-.51.91-.62,1.28-.29.83-.5,2.69-.39,4.47-.18-.05-.37-.1-.56-.14-1.85-.5-3.63-.73-5.57-.77-1.52-.04-3,.4-4.37,1.08-.35.22-1,.42-1.19.86-.13.37.06.75.43.87,1.61.42,3.35.19,5.01.18,2.07-.09,4,.7,6,1.08-1.21.35-2.39,1.07-3.33,1.66-.85.55-1.6,1.25-2.26,2.02-.59.73-1.07,1.55-1.53,2.36-.91,1.61-1.66,3.3-2.34,5.02-.19.48-.35.97-.53,1.46-.06.15-.02.37.13.46.31.15.38-.28.45-.5.23-.7.49-1.39.77-2.08,1.04-2.43,2.46-4.28,4.64-5.8.72-.53,1.5-.98,2.31-1.34-.06.1-.12.2-.17.31-.94,1.76-1.68,3.65-2.01,5.62-.19,1.92-.19,3.82-.08,5.75.05,1.23.04,2.49.37,3.68.18.65.83.42.83-.16.06-1.13,0-2.26.04-3.39.08-.93.23-1.85.47-2.75.26-.87.64-1.68,1.01-2.5.72-1.89,1.64-3.69,2.74-5.38.36-.53.71-1.05,1.1-1.56.29-.41.57-.76.77-1.17.04-.01.09-.02.13-.04-.02.55.19,1.1.69,1.42.3.16.6.22.92.24.43.48.87.96,1.29,1.45,2.56,2.95,4.37,5.91,5.43,9.7.87,3.11,1.23,6.33,1.38,9.54.21,3.85.51,7.66.92,11.59.22,2.13.43,4.27.67,6.4.21,1.98.43,3.95.38,5.94-.03,2.14-.08,4.28-.03,6.42,0,.72-.04,1.43,0,2.15.06.75-.17,1.62.36,2.24.27.35.78.33,1.06,0,.4-.42.36-1.02.39-1.56.03-.41.09-.82.14-1.22.11-1.31.37-2.61.58-3.91,1.14-6.01.2-12.13-.37-18.15-.84-7.03-1.54-14.16-3.87-20.89-1.16-3.18-2.96-6.09-5.08-8.72-.29-.4-.65-.82-1.02-1.24,0,0,.02,0,.02,0,2.06-.3,4.19-.36,6.22.22,1.43.4,2.8,1.02,4,1.91.34.24.62.47.98.71.48.37.89.82,1.42,1.11.13.09.29,0,.35-.13.15-.31-.12-.6-.3-.84-1.38-1.31-2.84-2.62-4.54-3.5-1.31-.67-2.74-1.2-4.16-1.61-1.39-.45-2.78-.9-4.24-1.09-.15-.02-.31-.04-.46-.06.48-.32.95-.65,1.37-1.05.56-.56,1.16-1.12,1.87-1.5.97-.49,2.06-.66,3.13-.82,1.26-.15,2.54-.02,3.78.19.41.07.83.11,1.24.15.74.07,1.67.32,2.43.48.39.05.5-.59.23-.79Z"/>
    </g>
  </g>
</svg>