<?xml version="1.0" encoding="UTF-8"?>
<svg id="Layer_2" data-name="Layer 2" xmlns="http://www.w3.org/2000/svg" viewBox="0 0 49.42 51.14">
  <defs>
    <style>
      .cls-1 {
        fill: #3d1900;
      }
    </style>
  </defs>
  <g id="Layer_1-2" data-name="Layer 1">
    <path class="cls-1" d="M48.87,32.05c-1.28-2.55-3.84-4.11-5.76-6.14-1.18-1.19-3.02-2.9-4.58-4-1.39-1.08-2.72-2.23-4.13-3.27.41-.51.77-1.08,1.06-1.62,1.85-3.27,3.65-6.6,4.89-10.16.4-1.14.68-2.35.54-3.56C40.78,1.84,39.77.02,38.13,0c-.99,0-1.74.69-2.32,1.42-.63.58-1.12,1.26-1.61,1.95-.35.47-.85.8-1.24,1.23-.65.78-1.25,1.6-1.83,2.43-1.51,2.15-2.75,4.5-3.75,6.93-.22.65-.41,1.32-.6,1.98-.34-.86-.69-1.71-1.04-2.56-.47-1.16-.82-2.38-1.4-3.49-1.47-2.72-2.9-5.67-5.57-7.41-1.21-.75-2.27-.77-3.11-.36-.32-.26-.68-.49-1.13-.61-2.33-.4-3.69,2.44-3.36,4.42.1,1.21.65,2.31,1.11,3.42.47,1.14.87,2.3,1.31,3.45.85,2.2,1.79,4.36,2.81,6.49-3.32-.11-6.52,1.11-9.68,2.02-.51.13-.99.36-1.45.61-.89.39-1.86.66-2.69,1.16C.85,24.04,0,26.05,0,27.97c0,4.77,4.02,5.93,8.01,6.3,2.75.28,5.51.42,8.28.39.93.07,1.84-.09,2.75-.25.14-.02.29-.03.44-.04.07.87.14,1.73.21,2.6.28,2.75.67,5.52,1.63,8.13.73,1.9,1.22,3.78,2.78,5.35,3.46,2.96,5.6-4.37,6.02-6.81.44-2.02.74-4.07.99-6.12.05-.47.11-.94.15-1.42,1.07.56,2.18,1,3.28,1.3,1.5.39,3.05.46,4.58.59,1.81.29,3.64.36,5.45.65l-.18-.02c3.99.79,6.09-3.24,4.47-6.57ZM22.07,26.98c.01.16.02.31.04.47-.09-.05-.18-.1-.26-.14.08-.11.15-.22.22-.33ZM23.56,21.41c-.21.27-.4.55-.56.83-.1-.22-.22-.43-.38-.63-.06-.86-.23-1.7-.45-2.53.25.41.5.83.76,1.24.17.39.39.75.63,1.09ZM24.5,33.17c.28.22.61.39.98.5-.09.82-.2,1.64-.29,2.47-.26-.97-.47-1.97-.69-2.97ZM29.7,23.8c-.17-.22-.35-.43-.56-.61.22-.29.43-.6.62-.93.72.77,1.58,1.43,2.4,2.09-.77-.22-1.62-.48-2.46-.55Z"/>
  </g>
</svg>