<?xml version="1.0" encoding="UTF-8"?>
<svg id="Layer_2" data-name="Layer 2" xmlns="http://www.w3.org/2000/svg" viewBox="0 0 63.36 85.83">
  <defs>
    <style>
      .cls-1 {
        fill: #3d1900;
      }
    </style>
  </defs>
  <g id="Layer_1-2" data-name="Layer 1">
    <path class="cls-1" d="M63.27,42.93c.05-2.17-.81-4.22-2.28-5.9-.06,0-.07-.06-.15-.12-.11-.25-.31-.37-.45-.43-2.38-2.24-5.71-3.48-8.89-3.23-.33,0-.65,0-.97.04,1.51-3.9,2.38-8.1,2.47-12.25C53.29,10.72,46.11.66,34.76.04,24.57-.64,13.79,7.25,13.74,17.55c0,.31.05.62.03.87.07.75.16,1.61.29,2.36.24.99,1.07,1.49,1.87,1.43.4.12.78.19,1.39.12.84-.19,1.4-.87,1.48-1.8.14-.62-.24-1.37-.36-2.05-.29-1.99-.47-3.73.27-5.53,1.27-3.35,4.5-6.21,8.17-7.89,5.57-1.86,13.84-2.17,17.78,2.17,5.6,7.83,3.47,17.58.63,24.72-2.29,5.71-5.9,10.56-10.79,13.85-2.81,1.3-6.03,2.11-9.35,2.3-2.39.19-4.68-.12-7.12-.56-.13-.06-.27-.12-.41-.19-2.29-.99-3.3-2.17-2.78-4.47q-.01-.06-.02-.12c.79-1.18,1.37-2.42,2.11-3.54,3.34-5.71,6.46-11.61,9.66-17.45,1.61-2.86,3.17-5.65,5.29-8.07,1.24-1.43,2.71-2.24,4.24-3.42.56-.37,1.19-.62,1.41-1.49.2-.99-.54-1.99-1.49-2.48-.28-.19-.49-.31-.81-.37-.35-.25-.81-.37-1.28-.19-3.07.93-4.97,4.22-6.58,6.71-2.94,4.47-5.44,9.32-8.01,14.1-2.15,4.04-4.33,8.2-6.67,12.17-1.34,1.93-2.68,3.85-4.33,5.4-1.24,1.06-2.59,1.49-4.26,1.93-.41.12-.89.25-1.23.43-1.68.68-3.06,1.68-2.87,3.48.16,1.61,1.22,2.36,2.44,2.55.65.19,1.4.19,2.25.06,1.21-.19,2.29-.75,3.48-1.06,2.08-.56,4.03-.37,6.21,0,.85.25,1.76.5,2.59.62,2.48.31,4.8.43,7.21.37,6.59-.3,12.67-2.44,17.37-6.33,0,1.64.17,3.33.49,4.99.67,5.22,2.86,10.25,3.92,15.53,1.32,6.77-1.04,13.48-7.15,15.09-2.23.37-4.6.31-6.84-.37-5.01-1.61-7.87-5.9-9.36-10.43-.02-.12-.04-.25-.05-.31-.69-3.54-.13-6.71,1.26-9.44.65-.87,1.4-1.55,2.3-2.11,1.47-.81,3.02-.5,4.56-.93,1.72-.43,1.9-2.24.57-3.79-1.86-2.11-4.27-1.3-6.28.31-5.69,3.29-8.29,10.74-5.93,17.82,3.05,9.56,13.22,15.09,22.06,12.73,9.84-2.67,12.64-12.86,9.65-22.79-1.72-5.9-4.98-12.05-4.78-17.95.28-2.3,1.02-4.41,2.68-5.96,1.33-1.24,2.88-1.99,4.94-1.93,2.5.06,6.02,2.11,6.24,4.72-.04.5-.19,1.06-.36,1.49-.09.19-.18.37-.26.62-.11.06-.08.25-.13.31-.39.62-1.03,1.18-1.69,1.68-.49.37-.59,1.24.13,1.8,1.21.87,2.83,1.24,3.91.31.44-.31.84-.87,1.06-1.37.43-.75.6-1.55.77-2.3.04-.12,0-.31.05-.43.09-.19.06-.37-.04-.56Z"/>
  </g>
</svg>