<?xml version="1.0" encoding="UTF-8"?>
<svg id="Layer_2" data-name="Layer 2" xmlns="http://www.w3.org/2000/svg" viewBox="0 0 67.49 72.42">
  <defs>
    <style>
      .cls-1 {
        fill: #3d1900;
      }
    </style>
  </defs>
  <g id="Layer_1-2" data-name="Layer 1">
    <g>
      <path class="cls-1" d="M41.97,25c-1.66-1.13-3.49-2.04-5.49-2.52-1.07-.23-2.17-.3-3.26-.37-1.6-.09-3.22.12-4.76.53-3.1,1.06-5.9,3.15-7.48,6.05-1.4,1.73-2.27,3.89-2.62,6.08-.24,2-.02,4.08.63,5.98,1.21,3.22,3.72,6.17,6.68,7.92,1.15.61,2.36,1.1,3.6,1.5,1.24.42,2.51.72,3.83.72,4,.15,7.86-.79,11.01-3.34,3.35-2.63,4.94-7.04,4.69-11.22-.23-4.68-3.04-8.76-6.84-11.34ZM26.3,37.06s0-.03,0-.04c-.24-1.13-.41-2.32-.11-3.45.15-.54.29-1.09.56-1.58.19-.3.42-.56.65-.83-1.03,1.8-1.39,3.85-1.1,5.9ZM28.84,37.71c-.28-.86-.41-1.78-.31-2.68.12-.64.35-1.27.7-1.82.37-.46.92-.73,1.42-1.02.26-.12.53-.22.82-.27-1.84,1.53-2.6,3.42-2.63,5.78ZM38.58,39.21c-.06-1.7-1.06-3.54-2.81-3.88-.77-.15-1.28.65-1.36,1.32-.08.66.18,1.46.83,1.73.45.16.93.4,1.01.92.03.54-.5.92-1.01.91-.73,0-1.42-.38-2.01-.79-.39-.3-.77-.6-1.13-.93-.21-.2-.32-.46-.35-.74-.02-.64.08-1.28.27-1.89.27-.57.67-1.08,1.15-1.5,1.34-.86,3.07-1.04,4.58-.57.47.86.74,1.81.91,2.77.08.54.19,1.09.16,1.64-.03.34-.15.67-.25.99ZM42.97,41.6c-.43,1.13-1.42,1.85-2.44,2.41.82-.96,1.35-2.12,1.79-3.29.17-.5.37-1,.45-1.53.16-1.32-.12-2.97-.61-4.35-.44-1.23-1.06-2.49-2.3-3.07-.15-.26-.33-.51-.53-.75-.16-.19-.34-.37-.52-.55,1.75.98,2.88,2.67,3.93,4.33.21.38.42.77.63,1.15.2.46.28.95.39,1.44.18,1.44-.29,2.87-.79,4.2ZM45.54,40.62c.31-1.23.49-2.52.39-3.79-.14-.98-.28-1.99-.69-2.9-.43-.92-.94-1.81-1.5-2.66-1.35-2.04-2.72-3.5-4.94-4.61-1.28-.74-2.78-.86-4.23-.91-4.33-.14-9.42,1.59-10.69,6.17-.99,2.8-.36,5.86.67,8.56-3.33-3.82-3.05-8.72.59-12.22,1.32-1.32,2.99-2.24,4.73-2.87,2.21-.56,4.56-.6,6.78-.08,2.78.87,5.52,2.92,7.27,5.23,2.25,2.87,2.86,6.63,1.63,10.07Z"/>
      <path class="cls-1" d="M31.4,17.01c.36-.84.3-1.78.36-2.68.21-3.32.75-6.61.84-9.94-.04-.92-.09-1.84-.16-2.75-.04-.47-.1-1.63-.73-1.64-.67.03-.87,1.51-1.03,2.05-.29,1.32-.56,2.63-.63,3.98-.16,1.91-.35,3.81-.51,5.72-.07.88-.13,1.76-.16,2.65,0,.88,0,1.79.33,2.62.35.8,1.35.79,1.7,0Z"/>
      <path class="cls-1" d="M48.66,8.43c-1.72,1.85-3.05,4.22-4.48,6.35-.73,1.6-3.17,4.05-2.28,5.8,0,0,0,0,0,0,1.3,1.51,2.35-1.43,3.1-2.27,1.15-1.71,2.3-3.42,3.45-5.14.6-.97,1.38-1.85,1.82-2.9.47-.97-.5-2.69-1.6-1.83Z"/>
      <path class="cls-1" d="M66.44,26.12c-1.18.11-2.3.58-3.44.86-1.23.32-2.44.66-3.65,1.03-.98.29-2.11.65-3.24,1.03-1.02.39-2.17.6-3.03,1.31-.59.53-.51,1.79.33,2.02.82.11,1.64-.11,2.44-.28.86-.22,1.73-.44,2.58-.69,1.72-.51,3.4-.99,5.12-1.52.61-.18,1.22-.35,1.83-.53.52-.14,1.02-.32,1.49-.58.25-.13.42-.42.51-.67.28-.74-.04-1.94-.96-1.98Z"/>
      <path class="cls-1" d="M53.59,44.31s-.02-.09-.07-.09-.07.05-.07.09.02.09.07.09.07-.05.07-.09Z"/>
      <path class="cls-1" d="M64.28,51.69c-.97-.57-1.93-1.15-2.9-1.72-1.94-1.14-3.84-2.33-5.76-3.51-.83-.51-1.68-.99-2.52-1.48-.41-.26-.92-.55-1.39-.24-.57.37-.75,1.14-.61,1.78.21.94,1.22,1.32,1.92,1.84,3.38,2.2,6.9,4.18,10.46,6.09.31.15.69.04.94-.18.73-.65.69-2.04-.14-2.59Z"/>
      <path class="cls-1" d="M47.63,64.85c-1.71-3.4-3.04-6.98-4.93-10.28-.36-.54-.77-1.41-1.5-1.44-.51.01-.78.51-.84.95-.07.88.41,1.7.71,2.5,1.25,2.94,2.67,5.96,4.14,8.83.25.47.49.96.72,1.44.33.59.7,1.67,1.41,1.83,1.01.14,1.41-1.18,1.11-1.96-.21-.65-.52-1.25-.82-1.86Z"/>
      <path class="cls-1" d="M32.81,58.12c-.14-.74-.27-1.49-.64-2.15-.05-.15-.08-.31-.24-.38-.25-.07-.33.25-.36.43-.19.47-.27.98-.33,1.48-.26,2.22-.12,4.46.06,6.68.18,2.53.25,5.07.59,7.59.24.97,1.27.8,1.37-.13.06-1.21,0-2.43,0-3.65-.12-3.29.09-6.61-.43-9.88Z"/>
      <path class="cls-1" d="M18.83,49.54c-1.04.24-2.94,2.97-3.71,3.9-.76,1.02-1.56,2.01-2.35,3.01-.3.4-.66.77-.9,1.21-.36.75-.57,1.76.03,2.45.45.54,1.1.38,1.6.03.54-.41.88-1.02,1.32-1.53,1.1-1.42,2.22-2.83,3.22-4.32.72-1.06,1.43-2.21,1.53-3.51.04-.48-.12-1.32-.76-1.23Z"/>
      <path class="cls-1" d="M13.13,39.54c.44-.21,1.03-.18,1.32-.6.34-.51.21-1.45-.45-1.62-.39-.09-.79-.15-1.16-.3-.81-.33-1.72-.09-2.57-.1-.94.04-1.88.05-2.82.06-1.98.03-3.98-.03-5.95.24-.28.05-.85.09-1.13.33-.47.39-.48,1.24-.09,1.68.35.39.91.39,1.39.44,1.97.14,3.96.1,5.93.16,1.02.04,2.04.05,3.07.05.54,0,1.09.03,1.63-.03.29-.06.56-.19.83-.3Z"/>
      <path class="cls-1" d="M6.25,18.42c2.22,2.06,4.36,4.23,6.77,6.08.57.42,1.05,1,1.71,1.28.33.12.66-.07.81-.39.42-.88-.39-1.65-.92-2.26-.34-.38-.66-.78-.99-1.18-1-1.21-2.11-2.22-3.23-3.34-1.12-1.08-2.19-2.25-3.49-3.13-.37-.23-.83-.5-1.28-.41-.8.2-.97,1.26-.66,1.92.29.57.83.97,1.27,1.42Z"/>
      <path class="cls-1" d="M16.38,12.05c1.23,2.29,2.8,4.38,4.48,6.35.27.34.79.34,1.06,0,.34-.38.34-.94.15-1.39-1.17-2.62-2.39-5.24-4.1-7.56-.52-.72-1.03-1.45-1.67-2.07-.73-.79-2.24-1.49-1.83.33.36,1.49,1.15,2.99,1.91,4.33Z"/>
    </g>
  </g>
</svg>