<?xml version="1.0" encoding="UTF-8"?>
<svg id="Layer_2" data-name="Layer 2" xmlns="http://www.w3.org/2000/svg" viewBox="0 0 29.11 78.59">
  <defs>
    <style>
      .cls-1 {
        fill: #3d1900;
      }
    </style>
  </defs>
  <g id="Layer_1-2" data-name="Layer 1">
    <g>
      <path class="cls-1" d="M28.93,40.95c-.1-1.55-.14-3.11-.34-4.66-.26-2.22-.45-4.46-.78-6.67-.2-1.08-.35-2.17-.44-3.27-.39-2.42-.86-4.83-1.58-7.18-.7-2.44-1.69-5.08-2.89-7.37-1.05-2.14-2.09-4.3-3.51-6.22-.8-1.16-1.68-2.27-2.67-3.26-.51-.5-1-1.02-1.62-1.39-.17-.13-.39-.24-.61-.29,0,0,0,0,0-.01.03-.05.08-.15.07-.27,0-.15-.11-.38-.29-.36-.11,0-.21.03-.31.05-.21.02-.4.13-.59.28-.13.1-.25.21-.38.32-.15.11-.29.22-.43.35-.41.37-.8.75-1.15,1.18-.39.47-.78.93-1.15,1.41-.38.48-.73,1.01-1.08,1.55-.3.45-.59.91-.88,1.36-.32.51-.6,1.05-.9,1.59-.28.51-.56,1.01-.81,1.53-.32.66-.61,1.33-.9,2.01-.17.39-.33.77-.48,1.16-.13.33-.24.66-.36.99-.24.68-.46,1.38-.68,2.07-.22.71-.44,1.42-.63,2.14-.36,1.33-.66,2.67-.96,4.01-.15.68-.26,1.36-.41,2.04-.07.35-.15.71-.23,1.06-.09.39-.15.79-.22,1.18-.03.16-.06.34-.08.52-.03.17-.09.6-.16,1.03-.05.3-.1.61-.15.91-.06.35-.12.69-.17,1.04-.11.64-.22,1.28-.31,1.92-.12.86-.21,1.72-.3,2.58-.08.81-.17,1.61-.24,2.42-.08.93-.15,1.85-.2,2.78-.08,1.37-.13,2.75-.14,4.12,0,.62,0,1.24.01,1.86.02.61.03,1.22.06,1.83.06,1.06.19,2.12.28,3.18.04.48.09.96.14,1.44.04.33.09.65.13.98.05.4.1.8.16,1.19.09.58.17,1.2.28,1.82.01.07.04.24.07.41.11.7.27,1.44.43,2.18.08.35.17.7.27,1.04.08.26.16.51.24.77.08.27.16.55.25.82.09.26.19.51.29.76.18.44.37.88.55,1.32.19.44.37.89.56,1.33.18.41.35.82.56,1.22.2.38.4.75.59,1.13.18.35.37.68.57,1.01.13.23.25.46.39.68.13.21.27.41.39.62.25.44.5.89.78,1.31.14.21.27.42.41.62.11.16.22.31.33.47.05.1.09.21.15.31.08.15.16.31.25.45.15.25.34.5.52.73.08.11.17.22.26.34.23.32.46.65.66.99.22.37.49.71.76,1.05.14.2.29.39.45.58.15.17.31.34.46.51.16.19.33.36.48.56.12.15.25.29.37.44.05.06.09.13.14.19.12.15.24.28.38.42.17.16.41.25.64.25.06,0,.11,0,.17-.02.14-.03.26-.09.37-.16.42.26.99.29,1.48.33,0,0-.09,0-.09,0,.96.11,1.92-.14,2.88-.13.91-.05,1.82,0,2.72-.08.42-.09.91-.1,1.24-.4.33-.28.57-.68.55-1.13.02-.43-.21-.81-.51-1.1.14-.17.26-.37.33-.58.27-.72.54-1.44.81-2.16.51-1.42,1.08-2.83,1.59-4.25,2.36-6.4,3.94-13.12,4.18-19.95.17-2.53.12-5.27-.07-7.84ZM8.01,12.36c.24-.54.48-1.07.72-1.61.23-.5.46-1,.71-1.49.49-.94.97-1.89,1.5-2.81.18-.3.36-.6.54-.91,0-.01.09-.16.18-.32.09-.15.18-.3.26-.45.22-.37.44-.73.67-1.09.19-.3.37-.6.56-.9.13-.21.28-.42.41-.63.05-.09.11-.18.17-.27.06.04.13.07.22.08.63.56.95,1.17,1.48,1.85,1.33,1.97,2.56,4.24,3.76,6.33.52.9.98,1.84,1.38,2.8.05.11.09.23.14.34-3.27-.13-6.55.28-9.79.69-1.23.19-2.47.34-3.7.49.26-.7.51-1.41.8-2.1ZM5.12,22.19c.28-1.47.63-2.93,1.03-4.38.3.15.65.19.98.22,1.19.05,2.37-.17,3.54-.34,2.64-.41,5.31-.74,7.98-.79.79-.01,1.59,0,2.38.03.4.06.77-.02,1.07-.21.25.63.49,1.26.72,1.89.31.91.57,1.83.82,2.76-.16-.07-.33-.12-.52-.13-3.63.24-7.23.73-10.83,1.25-1.33.21-2.67.33-4.01.49-1.1.1-2.22.15-3.32.32-.01,0-.03,0-.04,0,.03-.2.07-.4.1-.61.03-.17.06-.34.09-.51ZM25.32,54.85c-.74,4.52-1.94,8.94-3.46,13.26-.65,1.84-1.26,3.68-1.95,5.51-.18.48-.18,1.07.02,1.58-.94-.02-1.92.08-2.54.13-.51.06-1.02.03-1.52.05-.48.04-.96.1-1.44.07-.18,0-.34.03-.49.09-.01-.02-.03-.04-.04-.06-.07-.08-.14-.16-.21-.25-.1-.13-.19-.26-.29-.39-.07-.09-.15-.18-.22-.27-.29-.39-.55-.79-.84-1.17l-.18-.23c-.12-.16-.24-.32-.36-.48-.11-.14-.22-.29-.33-.43-.08-.1-.17-.2-.26-.3-.26-.35-.51-.71-.73-1.09-.16-.27-.34-.54-.54-.79-.15-.19-.32-.36-.5-.53-.07-.1-.14-.21-.21-.31-.1-.15-.2-.3-.3-.45-.19-.29-.39-.57-.58-.85-.2-.3-.43-.58-.62-.89-.18-.3-.36-.61-.54-.91-.17-.3-.33-.6-.5-.9,0,0-.03-.06-.06-.11-.13-.24-.26-.49-.39-.74-.13-.26-.27-.52-.41-.78-.25-.48-.48-.96-.7-1.46-.19-.47-.35-.94-.5-1.42-.15-.49-.31-.98-.45-1.47-.08-.27-.14-.55-.2-.83-.07-.28-.14-.56-.2-.85-.14-.62-.25-1.25-.36-1.88-.32-2.03-.5-4.08-.65-6.14-.03-.5-.04-1.01-.04-1.51,0-.57,0-1.13,0-1.7,0-.63.01-1.26.04-1.89.03-.63.04-1.27.07-1.9.01-.25.03-.49.04-.74.01-.2.02-.41.04-.62.04-.43.06-.87.1-1.3.04-.47.08-.94.12-1.41.08-.89.18-1.77.26-2.66.08-.85.16-1.7.24-2.55.07-.72.16-1.43.24-2.15.07-.62.13-1.24.2-1.86.04-.32.08-.64.13-.96.04-.29.09-.58.13-.87.05-.34.1-.68.15-1.02.1.02.21.03.31.05.47.1.91.12,1.44.14.74.09,1.48.03,2.23.04,2.66,0,5.3-.38,7.93-.7,1.91-.25,3.82-.46,5.74-.64.19-.02.6-.05,1.01-.08.48-.01.9-.29,1.15-.69.06-.09.11-.19.16-.29.2.72.42,1.53.61,2.24.16.58.36,1.15.53,1.73.23.87.32,1.77.49,2.65.23,1.72.41,3.46.47,5.2,0,1.05,0,2.1.02,3.15.04,5.22-.4,10.44-1.23,15.59Z"/>
      <path class="cls-1" d="M12.98,63.92c-.14-.58-.4-1.14-.75-1.63-.54-.73-1.14-1.49-2.01-1.82-.39-.13-.86-.16-1.19.14-.36.3-.5.84-.44,1.28.11.81.76,1.42,1.34,1.94,0,.13.04.25.07.38.02.19.03.38.1.56.16.43.37.85.6,1.25.23.37.45.78.82,1.03.85.49,1.48-.54,1.57-1.28.04-.26.02-.53,0-.79-.02-.35-.03-.7-.12-1.04Z"/>
      <path class="cls-1" d="M19.22,61.67c-.35-.62-.71-1.29-1.36-1.63-.29-.19-.67-.1-.92.11-.82.79-.42,2.11.19,2.91-.03.29,0,.58.02.88.01.35-.02.69.11,1.03.11.29.24.58.41.84.36.46.65,1.21,1.25,1.37.35.09.7-.13.86-.43.35-.6.32-1.33.29-2-.05-1.08-.34-2.13-.86-3.07Z"/>
      <path class="cls-1" d="M18.96,67.18s-.02,0-.03-.01c0,0-.02,0-.02,0,0,0,.06.02.06.02Z"/>
    </g>
  </g>
</svg>