<?xml version="1.0" encoding="UTF-8"?>
<svg id="Layer_2" data-name="Layer 2" xmlns="http://www.w3.org/2000/svg" viewBox="0 0 83.8 38.37">
  <defs>
    <style>
      .cls-1 {
        fill: #3d1900;
      }
    </style>
  </defs>
  <g id="Layer_1-2" data-name="Layer 1">
    <g>
      <path class="cls-1" d="M82.98,3.38c-.22-.05-.43.03-.62.14-.48.21-.94.48-1.35.8-.9.72-1.84,1.38-2.77,2.04-.97.68-2.42,1.4-3.65,1.77-1.04.3-2.15.33-3.1-.23-.85-.5-1.58-1.08-2.3-1.73-.52-.54-.99-1.12-1.51-1.65-1.35-1.36-3-2.52-4.89-2.98-5.37-1.07-11.4,1.95-15.84,4.75-3.05,2.02-5.23,3.01-8.92,3.37-1.6.1-3.24.27-4.76-.41-1.91-.72-3.27-2.34-4.68-3.74-1.39-1.36-2.9-2.59-4.42-3.79C21.48-.06,18.09-.26,14.97.24,10.58.94,6.51,3.43,3.75,6.92c-1.49,1.75-5.72,8.24-2.67,9.86,1.54.49,1.91-1.43,2.34-2.48.68-1.53,1.57-2.96,2.56-4.3,2.44-3.27,6.19-5.61,10.28-6.03,1.38-.12,2.77-.05,4.12.27,1.21.2,2.31.67,3.51.94,1.97.61,3.42,2.18,4.87,3.56,1.35,1.28,2.24,3.04,3.83,4.06.47.24.94.48,1.43.68,2.97.97,6.22.39,9.14-.51,2.69-.88,5.08-2.45,7.6-3.72,2.82-1.37,5.77-2.61,8.91-2.95,4.92-.55,6.29,2.83,10.08,4.79,2.81,1.52,5.97.58,8.56-.93,1.01-.63,2.02-1.28,2.89-2.1.9-.76,1.78-1.55,2.36-2.59.44-.66.27-1.86-.58-2.08Z"/>
      <path class="cls-1" d="M23.9,18.04c2.68.45,4.76,2.39,7,3.78,2.08,1.55,4.44,2.78,7.04,3.12,2,.31,4.1.24,6.02-.41.97-.36,1.9-.83,2.87-1.21,2.84-1.06,5.63-2.27,8.54-3.15,2.53-.78,5.06-1.13,7.64-.34,2.97,1,5.86,2.55,9.05,2.62,1.06.03,2.19.08,3.11-.53,1.31-.85,1.25-3.28-.21-3.94-1.01-.44-2.13-.21-3.2-.34-.79-.08-1.6-.15-2.37-.33-3.07-.64-6.01-2.17-9.2-2.05-3.2.21-6.25,1.32-9.22,2.48-1.68.62-3.33,1.34-5.03,1.9-.93.28-1.89.38-2.85.49-1.92.35-3.87.61-5.82.46-3.39-.23-6.39-1.95-9.29-3.58-1.68-.94-3.41-1.78-5.19-2.5-4.26-.94-9.6.57-12.73,3.61-.83.87-1.59,2.04-1.31,3.3.32,1.36,1.55,1.63,2.45.63,2.32-2.18,6.17-3.62,9.32-3.92,1.12-.06,2.25-.11,3.37-.1Z"/>
      <path class="cls-1" d="M79.61,34.42c-1.25.4-2.55.46-3.84.47-1.97.16-3.97-.22-5.75-1.09-.98-.55-2.03-.95-3.05-1.41-1.89-.91-3.83-1.76-5.86-2.34-2.32-.7-4.78-.65-7.14-.17-5.19.98-13.29,5.28-18.22,4.1-.95-.28-1.85-.7-2.73-1.16-3.63-1.99-7.86-3.94-12.28-2.95-1.85.33-3.74,1.3-4.59,3.05-.29.55-.49,1.17-.35,1.79.54,1.85,3.45.02,4.65-.32.4-.1.81-.17,1.22-.22,2.93-.27,5.75.73,8.38,1.9,1.73.72,3.51,1.45,5.38,1.72,1.29.14,2.58.11,3.86-.04,2.82-.4,5.55-1.26,8.27-2.08,3.28-1.02,6.67-2.23,10.16-1.96,2.73.27,5.16,1.6,7.67,2.59.87.32,1.7.73,2.57,1.07,1.65.56,3.37.99,5.13.99,1.71-.03,3.42-.52,4.88-1.42.7-.38,1.37-.81,2.01-1.29.25-.18.28-.59.19-.86-.07-.21-.29-.46-.55-.39Z"/>
    </g>
  </g>
</svg>